{"glyphs":{"0":{"ha":772,"x_min":69,"x_max":679,"o":"m 378 632 q 445 632 378 632 q 595 536 511 632 q 679 308 679 440 q 593 78 679 175 q 373 -18 507 -18 q 154 75 239 -18 q 69 307 69 168 q 158 539 69 446 q 378 632 246 632 m 372 100 q 424 100 372 100 q 549 154 475 100 q 622 309 622 208 q 549 462 622 410 q 373 514 475 514 q 199 460 271 514 q 126 306 126 407 q 198 152 126 204 q 372 100 269 100 z "},"1":{"ha":561,"x_min":96,"x_max":464,"o":"m 272 614 l 450 618 q 460 597 460 618 q 453 576 460 576 l 356 576 q 339 553 339 576 l 339 164 q 368 42 339 42 l 453 42 q 464 21 464 42 q 456 0 464 0 l 288 1 l 110 -3 q 100 18 100 -3 q 107 39 100 39 l 204 39 q 221 63 221 39 l 221 451 q 192 574 221 574 l 107 574 q 96 594 96 574 q 104 615 96 615 l 272 614 z "},"2":{"ha":671,"x_min":53,"x_max":614,"o":"m 567 188 q 591 199 569 199 q 613 190 613 199 l 596 -31 q 574 -40 596 -40 q 553 -31 553 -40 l 553 0 l 64 0 q 53 12 53 0 q 64 31 53 24 q 322 247 214 121 q 429 469 429 374 q 397 547 429 515 q 316 578 365 578 q 233 546 267 578 q 199 463 199 514 q 219 386 199 411 q 149 356 200 356 q 101 376 121 356 q 81 431 81 397 q 158 572 81 511 q 330 632 235 632 q 494 585 425 632 q 564 456 564 538 q 221 86 564 290 l 224 82 q 285 83 249 83 q 560 135 486 83 l 567 188 z "},"3":{"ha":765,"x_min":58,"x_max":688,"o":"m 103 -258 q 58 -172 58 -221 q 83 -99 58 -122 q 132 -76 107 -76 l 157 -76 q 360 -269 201 -269 q 497 -213 439 -269 q 554 -62 554 -157 q 507 103 554 32 q 379 193 460 175 q 267 101 292 158 q 261 81 261 89 l 261 74 q 224 76 240 67 q 208 112 208 86 q 235 163 208 138 q 301 210 263 189 q 378 256 339 231 q 444 327 417 282 q 471 433 471 372 q 437 531 471 493 q 344 569 403 569 q 244 535 285 569 q 204 463 204 500 q 222 390 204 425 q 149 343 200 343 q 99 364 119 343 q 78 421 78 385 q 176 571 78 510 q 369 632 275 632 q 535 582 463 632 q 608 451 608 532 q 438 229 608 322 l 438 226 q 623 117 558 193 q 688 -49 688 40 q 577 -252 688 -175 q 324 -329 467 -329 q 103 -258 182 -329 z "},"4":{"ha":772,"x_min":51,"x_max":707,"o":"m 506 -310 l 278 -314 q 268 -292 268 -314 q 275 -271 268 -271 l 407 -271 q 428 -256 425 -271 q 428 -237 428 -250 l 428 7 l 67 7 q 51 28 51 7 q 68 71 51 50 l 515 656 q 567 626 567 656 q 564 579 567 621 q 553 264 553 454 l 553 74 l 689 74 q 707 40 707 74 q 689 7 707 7 l 553 7 l 553 -146 q 582 -268 553 -268 l 694 -267 q 706 -289 706 -267 q 697 -311 706 -311 l 506 -310 m 428 71 l 428 357 l 431 454 l 426 454 l 143 71 l 428 71 z "},"5":{"ha":772,"x_min":74,"x_max":656,"o":"m 329 307 q 560 222 465 307 q 656 0 656 138 q 537 -234 656 -137 q 275 -331 418 -331 q 133 -294 193 -331 q 74 -206 74 -257 q 93 -155 74 -178 q 144 -132 113 -132 q 165 -135 151 -132 q 218 -231 176 -196 q 315 -265 260 -265 q 496 -195 431 -265 q 561 -26 561 -125 q 478 142 561 74 q 267 211 394 211 q 201 189 211 211 q 173 175 193 175 q 153 188 153 175 l 196 585 l 513 611 q 615 657 592 617 q 633 667 621 667 q 646 656 646 667 q 606 558 639 601 q 504 510 572 515 l 239 486 l 214 290 q 329 307 268 307 z "},"6":{"ha":772,"x_min":89,"x_max":697,"o":"m 332 408 q 314 430 314 408 q 356 470 314 451 q 447 489 399 489 q 625 426 553 489 q 697 269 697 363 q 606 59 697 136 q 392 -18 515 -18 q 178 74 268 -18 q 89 331 89 165 q 131 552 89 449 q 237 724 174 656 q 379 844 300 792 q 653 963 531 944 q 678 944 678 963 q 672 935 678 936 q 340 694 451 843 q 229 370 229 544 q 284 115 229 196 q 418 33 339 33 q 518 88 478 33 q 558 228 558 143 q 521 371 558 314 q 410 428 483 428 q 360 418 386 428 q 332 408 333 408 z "},"7":{"ha":667,"x_min":42,"x_max":675,"o":"m 675 603 q 664 578 675 596 q 413 196 524 400 q 315 -36 351 83 q 279 -260 279 -156 q 272 -278 279 -272 q 216 -310 256 -289 q 167 -332 176 -331 q 158 -280 158 -332 q 175 -149 158 -228 q 228 6 192 -71 q 298 144 265 83 q 389 281 331 204 q 567 508 472 394 l 374 508 q 192 501 246 508 q 110 469 138 494 q 86 431 103 464 q 73 426 83 426 q 52 432 63 426 q 42 442 42 438 q 47 456 42 446 l 64 490 q 100 574 76 515 q 131 656 124 633 q 140 660 133 660 q 159 653 147 660 q 171 642 171 647 l 163 614 l 467 614 q 592 618 533 614 q 654 622 650 622 q 675 603 675 622 z "},"8":{"ha":728,"x_min":92,"x_max":636,"o":"m 92 213 q 142 358 92 290 q 261 474 193 426 q 117 701 117 572 q 200 876 117 800 q 387 951 283 951 q 553 896 490 951 q 617 763 617 840 q 565 618 617 685 q 444 508 514 551 q 561 417 519 457 q 636 251 636 342 q 551 55 636 128 q 353 -18 465 -18 q 166 47 240 -18 q 92 213 92 113 m 522 196 q 304 446 522 331 q 197 246 197 361 q 250 100 197 153 q 377 47 303 47 q 487 92 451 47 q 522 196 522 138 m 253 658 q 273 636 253 658 q 317 598 292 614 q 367 564 342 582 q 400 540 392 546 q 506 726 506 625 q 459 841 506 794 q 351 888 413 888 q 253 849 290 888 q 215 756 215 811 q 253 658 215 701 z "},"9":{"ha":761,"x_min":75,"x_max":681,"o":"m 438 215 q 456 194 456 215 q 413 153 456 172 q 322 135 371 135 q 146 197 217 135 q 75 351 75 258 q 164 558 75 485 q 377 632 253 632 q 591 540 501 632 q 681 283 681 449 q 638 63 681 165 q 532 -107 594 -40 q 389 -225 469 -174 q 115 -342 239 -324 q 90 -324 90 -342 q 96 -314 90 -315 q 429 -76 318 -222 q 540 244 540 71 q 485 499 540 418 q 351 581 431 581 q 252 528 290 581 q 214 391 214 476 q 250 251 214 306 q 360 196 286 196 q 410 206 383 196 q 438 215 436 215 z "}," ":{"ha":361,"x_min":0,"x_max":0,"o":""},"!":{"ha":444,"x_min":118,"x_max":301,"o":"m 256 247 q 233 235 243 235 q 196 283 196 235 l 196 389 q 118 911 196 732 q 218 950 179 950 q 297 788 297 950 q 276 545 297 728 q 256 308 256 363 q 256 247 256 254 m 143 58 q 143 75 143 58 q 166 116 143 92 q 222 140 189 140 q 278 117 254 140 q 301 63 301 94 q 280 6 301 31 q 226 -18 258 -18 q 168 3 193 -18 q 143 58 143 25 z "},"\"":{"ha":528,"x_min":78,"x_max":449,"o":"m 121 614 q 100 758 122 665 q 78 880 78 850 q 96 928 78 910 q 138 947 114 947 q 179 928 161 947 q 197 880 197 910 q 175 758 197 850 q 154 614 153 665 q 138 608 147 608 q 121 614 128 608 m 372 614 q 351 758 374 665 q 329 880 329 850 q 347 928 329 910 q 389 947 365 947 q 431 928 413 947 q 449 880 449 910 q 426 758 449 850 q 406 614 404 665 q 389 608 399 608 q 372 614 379 608 z "},"#":{"ha":769,"x_min":17,"x_max":732,"o":"m 732 321 l 494 321 l 450 39 q 382 -3 444 -3 l 428 321 l 247 321 l 203 39 q 135 -3 197 -3 l 181 321 l 67 321 q 32 335 43 319 q 17 382 21 350 l 190 386 l 218 576 l 94 581 q 60 594 71 581 q 42 642 49 608 l 226 639 l 265 906 q 290 940 268 928 q 331 954 311 953 l 350 956 l 299 638 l 474 636 l 513 906 q 537 940 515 928 q 578 954 558 953 l 597 956 l 544 635 l 657 633 q 695 615 679 633 q 715 578 711 596 l 719 558 l 533 564 l 507 394 l 669 399 q 707 379 692 399 q 728 340 722 360 l 732 321 m 289 574 l 258 388 l 439 393 l 464 567 l 289 574 z "},"$":{"ha":722,"x_min":64,"x_max":649,"o":"m 568 958 q 585 972 565 972 q 610 961 606 972 q 646 744 640 847 q 624 736 642 736 q 601 740 606 736 q 503 876 567 846 q 431 894 472 892 l 410 553 q 565 443 526 482 q 649 253 649 361 q 572 78 649 146 q 378 0 494 11 l 371 -125 q 359 -151 369 -142 q 338 -161 349 -161 q 317 -157 328 -161 l 325 -3 q 151 38 231 1 l 163 11 q 156 -5 167 3 q 133 -12 146 -12 q 117 -6 119 -12 q 64 250 74 107 q 85 264 64 264 q 108 254 107 264 q 184 120 129 185 q 328 49 239 56 l 347 421 q 240 489 282 458 q 188 532 199 519 q 158 566 176 544 q 131 608 139 588 q 111 710 111 661 q 183 864 111 799 q 375 943 256 929 l 379 1026 q 421 1071 382 1071 q 442 1068 431 1071 q 433 947 439 1033 q 561 929 497 947 l 574 926 q 568 958 568 949 m 506 194 q 400 385 506 304 q 381 50 385 107 q 474 100 443 60 q 506 194 506 140 m 247 751 q 356 588 247 661 l 372 893 q 247 751 247 874 z "},"%":{"ha":1124,"x_min":99,"x_max":1031,"o":"m 269 -12 q 231 -46 247 -46 q 192 -22 215 -46 l 868 947 q 900 974 886 974 q 944 950 921 974 l 269 -12 m 821 447 q 867 447 821 447 q 972 381 914 447 q 1031 222 1031 314 q 971 61 1031 129 q 817 -7 911 -7 q 663 58 722 -7 q 604 220 604 124 q 666 382 604 317 q 821 447 728 447 m 816 85 q 851 85 816 85 q 934 121 886 85 q 982 222 982 157 q 934 322 982 288 q 817 356 886 356 q 700 320 747 356 q 653 219 653 285 q 699 119 653 154 q 816 85 746 85 m 315 933 q 362 933 315 933 q 467 867 408 933 q 525 708 525 800 q 465 547 525 615 q 311 479 406 479 q 158 544 217 479 q 99 706 99 610 q 160 868 99 803 q 315 933 222 933 m 310 571 q 345 571 310 571 q 428 607 381 571 q 476 708 476 643 q 428 808 476 774 q 311 842 381 842 q 194 806 242 842 q 147 706 147 771 q 194 606 147 640 q 310 571 240 571 z "},"&":{"ha":1139,"x_min":43,"x_max":1101,"o":"m 886 596 l 1049 600 q 1061 579 1061 600 q 1049 558 1061 558 l 989 558 q 950 521 967 558 q 855 369 918 456 q 711 206 792 282 q 972 68 876 68 q 1061 108 1025 68 q 1083 122 1074 122 q 1101 106 1101 122 q 1040 29 1101 76 q 900 -18 978 -18 q 608 125 776 -18 q 258 -18 419 -18 q 106 31 169 -18 q 43 176 43 81 q 122 371 43 288 q 196 440 165 415 q 288 510 226 465 q 210 738 210 646 q 278 881 210 829 q 428 933 346 933 q 560 888 510 933 q 611 786 611 843 q 578 681 611 729 q 513 606 546 633 q 415 532 479 578 q 668 243 510 388 q 781 388 739 314 q 822 507 822 461 q 815 542 822 526 q 794 557 807 557 l 738 557 q 726 578 726 557 q 738 599 726 599 l 886 596 m 344 86 q 565 164 451 86 q 314 465 419 297 q 168 244 168 354 q 219 126 168 165 q 344 86 271 86 m 414 883 q 347 853 374 883 q 319 760 319 824 q 388 579 319 696 q 501 780 501 676 q 414 883 501 883 z "},"'":{"ha":417,"x_min":106,"x_max":304,"o":"m 243 754 q 176 804 243 804 q 158 803 168 804 q 122 861 122 821 q 144 924 122 901 q 208 947 167 947 q 276 911 249 947 q 304 828 304 875 q 256 682 304 738 q 121 578 208 626 l 106 604 q 203 676 164 633 q 243 754 243 719 z "},"(":{"ha":674,"x_min":92,"x_max":721,"o":"m 703 -506 q 719 -535 719 -506 q 703 -565 719 -565 q 484 -496 593 -565 q 288 -307 375 -426 q 146 -9 200 -187 q 92 366 92 169 q 147 731 92 563 q 290 1009 201 899 q 486 1182 378 1119 q 704 1244 594 1244 q 721 1215 721 1244 q 703 1185 721 1185 q 456 1072 574 1185 q 267 771 339 960 q 196 362 196 582 q 269 -62 196 142 q 460 -386 343 -267 q 703 -506 578 -506 z "},")":{"ha":674,"x_min":-47,"x_max":582,"o":"m -29 -506 q 213 -386 96 -506 q 404 -62 331 -267 q 478 362 478 142 q 406 771 478 582 q 217 1072 335 960 q -29 1185 100 1185 q -47 1215 -47 1185 q -31 1244 -47 1244 q 188 1182 79 1244 q 384 1009 296 1119 q 527 731 472 899 q 582 366 582 563 q 528 -9 582 169 q 386 -307 474 -187 q 190 -496 299 -426 q -29 -565 81 -565 q -46 -535 -46 -565 q -29 -506 -46 -506 z "},"*":{"ha":694,"x_min":89,"x_max":600,"o":"m 108 757 q 96 780 96 764 q 107 808 96 796 q 128 821 118 821 q 146 817 139 821 l 322 689 l 317 914 q 328 928 317 922 q 350 935 339 935 q 376 910 376 935 q 375 879 376 904 q 367 688 368 757 l 556 804 q 572 808 564 808 q 589 800 581 808 q 597 778 597 792 q 582 757 597 764 l 386 657 l 583 561 q 600 536 600 551 q 589 510 600 521 q 567 499 578 499 q 547 503 556 499 l 365 624 l 375 394 q 344 374 375 374 q 314 397 314 374 l 324 619 l 133 497 q 119 494 129 494 q 99 506 108 494 q 89 531 89 517 q 103 551 89 546 l 304 654 l 108 757 z "},"+":{"ha":722,"x_min":46,"x_max":679,"o":"m 394 40 q 354 3 394 3 q 344 3 350 3 l 329 7 q 326 324 329 65 l 97 324 q 61 338 74 324 q 47 368 49 353 l 46 383 q 325 386 103 383 l 322 636 q 382 701 322 701 q 394 701 388 701 l 394 386 l 613 390 q 678 333 678 390 q 678 324 678 328 l 394 324 l 394 40 z "},",":{"ha":361,"x_min":83,"x_max":282,"o":"m 221 -51 q 154 -1 221 -1 q 136 -3 146 -1 q 100 56 100 15 q 122 119 100 96 q 185 142 144 142 q 254 106 226 142 q 282 22 282 69 q 234 -124 282 -68 q 99 -228 186 -179 l 83 -201 q 181 -129 142 -172 q 221 -51 221 -86 z "},"-":{"ha":347,"x_min":8,"x_max":333,"o":"m 8 315 q 51 315 14 315 q 180 334 89 315 q 293 353 271 353 q 333 319 333 353 q 331 297 333 314 q 183 273 275 294 q 64 251 92 251 q 24 267 36 251 q 11 300 13 283 l 8 315 z "},".":{"ha":361,"x_min":101,"x_max":260,"o":"m 260 64 q 260 47 260 64 q 237 6 260 31 q 181 -18 214 -18 q 125 5 149 -18 q 101 60 101 28 q 123 116 101 92 q 177 140 144 140 q 235 119 210 140 q 260 64 260 97 z "},"/":{"ha":806,"x_min":60,"x_max":782,"o":"m 138 -157 q 102 -190 121 -190 q 60 -167 83 -190 l 707 1036 q 736 1064 722 1064 q 782 1040 761 1064 l 138 -157 z "},":":{"ha":361,"x_min":101,"x_max":260,"o":"m 260 531 q 260 514 260 531 q 237 473 260 497 q 181 449 214 449 q 125 472 149 449 q 101 526 101 494 q 123 583 101 558 q 177 607 144 607 q 235 585 210 607 q 260 531 260 564 m 260 64 q 260 47 260 64 q 237 6 260 31 q 181 -18 214 -18 q 125 5 149 -18 q 101 60 101 28 q 123 116 101 92 q 177 140 144 140 q 235 119 210 140 q 260 64 260 97 z "},";":{"ha":361,"x_min":83,"x_max":282,"o":"m 263 531 q 263 514 263 531 q 240 473 263 497 q 184 449 217 449 q 128 472 151 449 q 104 526 104 494 q 126 583 104 558 q 180 607 147 607 q 238 585 213 607 q 263 531 263 564 m 221 -51 q 154 -1 221 -1 q 136 -3 146 -1 q 100 56 100 15 q 122 119 100 96 q 185 142 144 142 q 254 106 226 142 q 282 22 282 69 q 234 -124 282 -68 q 99 -228 186 -179 l 83 -201 q 181 -129 142 -172 q 221 -51 221 -86 z "},"<":{"ha":657,"x_min":47,"x_max":575,"o":"m 135 245 q 91 277 135 245 q 47 326 47 310 q 135 408 47 343 q 336 532 224 472 q 503 592 449 592 q 549 583 531 592 q 571 564 567 574 l 575 556 q 358 452 460 510 q 223 369 257 394 q 169 326 189 343 q 336 213 214 282 q 575 97 458 144 q 550 72 569 82 q 503 61 531 61 q 336 121 449 61 q 135 245 224 181 z "},"=":{"ha":722,"x_min":47,"x_max":678,"o":"m 611 500 q 663 487 649 500 q 676 458 676 474 q 676 436 676 442 l 99 436 q 63 450 75 436 q 49 478 50 464 l 47 493 l 611 500 m 611 272 q 663 259 649 272 q 676 230 676 246 q 676 208 676 214 l 99 208 q 63 222 75 208 q 49 250 50 236 l 47 265 l 611 272 z "},">":{"ha":631,"x_min":49,"x_max":576,"o":"m 488 408 q 532 375 488 408 q 576 326 576 343 q 488 245 576 310 q 288 121 400 181 q 121 61 175 61 q 75 70 93 61 q 53 89 57 79 l 49 97 q 267 201 165 144 q 454 326 410 282 q 401 369 435 343 q 265 452 367 394 q 49 556 164 510 q 74 581 54 571 q 121 592 93 592 q 288 532 175 592 q 488 408 400 472 z "},"?":{"ha":564,"x_min":63,"x_max":494,"o":"m 160 272 l 150 492 q 217 519 150 519 q 358 532 332 519 q 401 558 383 544 q 436 657 436 588 q 376 786 436 726 q 238 846 315 846 q 119 793 186 846 q 63 869 63 811 q 88 931 63 904 q 154 957 113 957 q 393 851 292 957 q 494 604 494 746 q 428 449 494 506 q 263 393 363 393 q 217 396 247 393 q 214 310 214 354 q 217 247 214 265 q 188 236 204 236 q 160 272 160 236 m 274 64 q 274 47 274 64 q 251 6 274 31 q 195 -18 228 -18 q 139 5 163 -18 q 115 60 115 28 q 137 116 115 92 q 191 140 158 140 q 249 119 224 140 q 274 64 274 97 z "},"@":{"ha":1189,"x_min":99,"x_max":1122,"o":"m 99 121 q 246 458 99 319 q 594 597 393 597 q 794 446 794 597 q 776 288 794 399 q 757 149 757 178 q 800 79 757 79 q 831 94 815 79 q 851 108 846 108 q 864 94 864 108 q 824 25 861 58 q 744 -8 786 -8 q 657 106 657 -8 q 660 139 657 117 l 656 139 q 562 26 626 71 q 433 -18 497 -18 q 307 75 307 -18 q 406 231 307 158 q 672 351 504 303 q 676 413 676 378 q 575 533 676 533 q 387 485 478 533 q 235 344 296 438 q 174 133 174 250 q 280 -93 174 -11 q 532 -175 386 -175 q 906 -31 768 -175 q 1043 304 1043 113 q 917 619 1043 485 q 753 724 854 685 q 525 763 651 763 q 307 728 399 763 q 274 717 278 717 q 257 736 257 717 q 285 765 257 756 q 562 817 419 817 q 813 776 704 817 q 989 668 922 736 q 1122 335 1122 529 q 1081 128 1122 229 q 963 -53 1039 28 q 767 -185 888 -135 q 503 -235 647 -235 q 212 -142 325 -235 q 99 121 99 -50 m 668 311 q 492 219 544 267 q 439 115 439 171 q 495 58 439 58 q 602 126 551 58 q 668 311 653 194 z "},"A":{"ha":910,"x_min":-36,"x_max":928,"o":"m 740 1 l 564 -3 q 551 21 551 -3 q 564 44 551 44 l 643 44 q 672 68 672 44 q 619 234 672 78 q 554 429 567 390 l 303 429 q 204 67 204 115 q 213 46 204 46 l 313 46 q 328 23 328 46 q 310 0 328 0 l 131 1 l -24 -3 q -36 21 -36 -3 q -24 44 -36 44 l 46 44 q 92 75 76 44 q 240 451 150 201 q 362 783 329 701 q 394 873 394 864 q 389 893 394 882 q 383 907 383 904 q 403 918 383 918 q 441 928 424 918 q 464 950 458 938 q 492 981 479 981 q 511 939 497 981 l 790 185 q 864 46 843 46 l 914 46 q 928 23 928 46 q 917 0 928 0 l 740 1 m 429 790 q 321 485 386 679 l 535 485 q 435 790 442 767 l 429 790 z "},"B":{"ha":922,"x_min":71,"x_max":849,"o":"m 82 935 l 264 932 l 424 932 q 690 863 601 932 q 779 694 779 794 q 722 563 779 621 q 579 489 665 506 l 579 483 q 776 394 704 461 q 849 243 849 328 q 742 71 849 142 q 453 0 635 0 l 318 0 l 82 -3 q 71 21 71 -3 q 82 44 71 44 l 142 44 q 188 58 176 44 q 199 108 199 71 l 199 765 q 169 888 199 888 l 82 888 q 71 911 71 888 q 82 935 71 935 m 342 178 q 372 56 342 56 l 443 56 q 619 107 558 56 q 681 243 681 158 q 617 389 681 335 q 342 460 544 451 l 342 178 m 342 813 l 342 515 q 415 510 375 510 q 573 560 517 510 q 629 688 629 611 q 568 820 629 764 q 382 876 507 876 q 342 813 342 876 z "},"C":{"ha":1010,"x_min":64,"x_max":942,"o":"m 894 193 q 919 208 897 208 q 940 196 940 208 l 929 3 q 908 -8 929 -8 q 886 3 886 -8 l 886 36 q 619 -18 750 -18 q 222 102 381 -18 q 64 435 64 222 q 147 715 64 594 q 358 892 231 835 q 620 950 486 950 q 860 896 754 950 l 860 928 q 880 940 860 940 q 900 928 900 940 q 914 722 900 815 q 893 708 917 708 q 868 722 869 708 l 857 788 q 598 888 749 888 q 342 777 447 888 q 236 465 236 667 q 348 153 236 263 q 628 44 460 44 q 886 128 764 44 l 894 193 z "},"D":{"ha":1057,"x_min":71,"x_max":1021,"o":"m 83 935 l 267 932 l 456 932 q 867 803 714 932 q 1021 464 1021 675 q 868 126 1021 253 q 482 0 715 0 l 319 0 l 83 -3 q 72 21 72 -3 q 83 44 72 44 l 143 44 q 189 58 178 44 q 200 108 200 71 l 200 769 q 171 888 200 888 l 83 888 q 71 911 71 888 q 83 935 71 935 m 392 876 q 343 819 343 876 l 343 178 q 372 56 343 56 l 486 57 q 760 160 658 60 q 863 444 863 261 q 750 744 863 626 q 396 876 638 861 q 392 876 393 876 z "},"E":{"ha":853,"x_min":71,"x_max":793,"o":"m 89 935 l 264 932 l 667 932 l 667 961 q 687 974 667 974 q 707 961 707 974 q 721 750 707 822 q 701 739 724 739 q 676 750 679 739 q 624 851 654 838 q 388 881 550 879 q 351 865 360 879 q 342 817 342 851 l 342 489 q 510 497 428 490 q 599 508 592 504 l 613 590 q 629 600 614 600 q 656 588 658 600 q 649 465 649 533 q 656 343 649 397 q 635 332 658 332 q 613 340 613 332 l 597 424 q 509 435 589 428 q 342 444 429 443 l 342 178 q 371 56 342 56 l 442 56 q 736 114 657 58 l 746 190 q 770 201 749 201 q 792 193 792 201 l 779 -31 q 758 -40 779 -40 q 736 -31 736 -40 l 736 0 l 393 0 l 82 -3 q 71 21 71 -3 q 82 44 71 44 l 142 44 q 188 58 176 44 q 199 108 199 71 l 199 767 q 169 889 199 889 l 89 889 q 78 912 78 889 q 89 935 78 935 z "},"F":{"ha":765,"x_min":71,"x_max":731,"o":"m 729 747 q 708 739 729 739 q 685 750 688 739 q 632 851 663 838 q 388 881 558 879 q 351 865 361 878 q 342 817 342 853 l 342 483 q 515 492 429 485 q 607 503 600 499 l 621 585 q 638 594 622 594 q 664 582 667 594 q 657 460 657 528 q 664 338 657 392 q 644 326 667 326 q 621 335 621 326 l 606 418 q 513 430 597 422 q 342 439 429 438 l 342 178 q 371 56 342 56 l 451 56 q 463 28 463 56 q 451 0 463 0 l 276 1 l 82 -3 q 71 21 71 -3 q 82 44 71 44 l 142 44 q 188 58 176 44 q 199 108 199 71 l 199 767 q 169 889 199 889 l 89 889 q 78 912 78 889 q 89 935 78 935 l 264 932 l 675 932 l 675 961 q 695 974 675 974 q 715 961 715 974 l 729 747 z "},"G":{"ha":1065,"x_min":64,"x_max":1064,"o":"m 858 397 l 1053 401 q 1064 378 1064 401 q 1053 354 1064 354 l 1010 354 q 964 341 975 354 q 953 260 953 328 q 956 123 953 193 q 963 26 960 53 q 970 -21 967 -1 q 974 -49 974 -40 q 951 -65 974 -65 q 924 -14 943 -65 q 886 38 906 38 q 618 -18 758 -18 q 221 101 378 -18 q 64 433 64 221 q 147 714 64 594 q 357 891 229 833 q 635 949 485 949 q 746 937 700 949 q 860 899 792 925 l 860 928 q 880 940 860 940 q 900 928 900 940 q 913 718 900 801 q 906 708 914 713 q 884 704 899 704 q 868 717 869 704 l 858 778 q 604 888 738 888 q 342 776 447 888 q 236 465 236 664 q 347 155 236 265 q 626 44 458 44 q 793 103 736 44 l 793 231 q 764 353 793 353 l 617 353 q 606 376 606 353 q 617 399 606 399 l 858 397 z "},"H":{"ha":1174,"x_min":71,"x_max":1108,"o":"m 903 933 l 1097 938 q 1108 914 1108 938 q 1097 890 1108 890 l 1038 890 q 992 877 1003 890 q 981 826 981 864 l 981 168 q 1010 46 981 46 l 1090 46 q 1101 23 1101 46 q 1090 0 1101 0 l 915 1 l 721 -3 q 710 21 710 -3 q 721 44 710 44 l 781 44 q 826 58 815 44 q 838 108 838 71 l 838 436 l 342 436 l 342 168 q 371 46 342 46 l 451 46 q 463 23 463 46 q 451 0 463 0 l 276 1 l 82 -3 q 71 21 71 -3 q 82 44 71 44 l 142 44 q 188 58 176 44 q 199 108 199 71 l 199 767 q 169 889 199 889 l 89 889 q 78 912 78 889 q 89 935 78 935 l 264 933 l 458 938 q 469 914 469 938 q 458 890 469 890 l 399 890 q 353 877 364 890 q 342 826 342 864 l 342 493 l 838 493 l 838 767 q 808 889 838 889 l 728 889 q 717 912 717 889 q 728 935 717 935 l 903 933 z "},"I":{"ha":533,"x_min":71,"x_max":469,"o":"m 264 933 l 458 938 q 469 914 469 938 q 458 890 469 890 l 399 890 q 353 877 364 890 q 342 826 342 864 l 342 168 q 371 46 342 46 l 451 46 q 463 23 463 46 q 451 0 463 0 l 276 1 l 82 -3 q 71 21 71 -3 q 82 44 71 44 l 142 44 q 188 58 176 44 q 199 108 199 71 l 199 767 q 169 889 199 889 l 89 889 q 78 912 78 889 q 89 935 78 935 l 264 933 z "},"J":{"ha":508,"x_min":-92,"x_max":482,"o":"m 276 933 l 471 938 q 482 914 482 938 q 471 890 482 890 l 411 890 q 365 877 376 890 q 354 826 354 864 l 354 183 q 317 -140 354 -44 q 183 -312 272 -246 q -18 -379 94 -379 q -73 -364 -54 -379 q -92 -329 -92 -349 q -31 -253 -92 -276 q 103 -289 28 -289 q 169 -246 147 -289 q 211 171 211 -160 l 211 767 q 182 889 211 889 l 101 889 q 90 912 90 889 q 101 935 90 935 l 276 933 z "},"K":{"ha":989,"x_min":71,"x_max":1060,"o":"m 264 933 l 458 938 q 469 914 469 938 q 458 890 469 890 l 399 890 q 353 877 364 890 q 342 826 342 864 l 342 506 l 388 506 q 714 867 714 819 q 692 890 714 890 l 653 890 q 643 913 643 890 q 653 935 643 935 l 803 932 l 954 935 q 965 912 965 935 q 953 889 965 889 l 903 889 q 760 767 886 889 q 496 532 633 644 l 496 526 l 806 213 q 989 56 961 56 l 1042 56 q 1060 24 1060 47 q 1044 0 1060 0 q 911 1 1044 0 l 692 -3 q 679 21 679 -3 q 692 44 679 44 l 714 44 q 749 65 749 44 q 733 94 749 79 q 394 454 468 378 l 342 454 l 342 168 q 371 46 342 46 l 451 46 q 463 23 463 46 q 451 0 463 0 l 276 1 l 82 -3 q 71 21 71 -3 q 82 44 71 44 l 142 44 q 188 58 176 44 q 199 108 199 71 l 199 767 q 169 889 199 889 l 89 889 q 78 912 78 889 q 89 935 78 935 l 264 933 z "},"L":{"ha":801,"x_min":71,"x_max":785,"o":"m 264 933 l 458 938 q 469 914 469 938 q 458 890 469 890 l 399 890 q 353 877 364 890 q 342 826 342 864 l 342 56 l 422 56 q 728 114 643 56 l 738 190 q 762 201 740 201 q 783 193 783 201 l 771 -31 q 749 -40 771 -40 q 728 -31 728 -40 l 728 0 l 276 0 l 82 -3 q 71 21 71 -3 q 82 44 71 44 l 142 44 q 188 58 176 44 q 199 108 199 71 l 199 767 q 169 889 199 889 l 89 889 q 78 912 78 889 q 89 935 78 935 q 264 933 89 935 z "},"M":{"ha":1338,"x_min":32,"x_max":1306,"o":"m 1108 1 l 926 -3 q 915 21 915 -3 q 926 44 915 44 l 979 44 q 1017 56 1006 44 q 1026 91 1028 67 q 1014 264 1025 115 q 981 738 981 678 l 975 738 q 821 385 951 685 q 658 19 690 86 q 633 8 651 8 q 610 19 615 8 q 469 335 575 74 q 310 750 364 597 l 304 750 q 269 153 269 261 q 304 46 269 46 l 365 46 q 383 23 383 46 q 365 0 383 0 l 219 1 l 44 -3 q 32 21 32 -3 q 44 44 32 44 l 90 44 q 142 51 128 44 q 161 82 157 57 q 204 436 175 163 q 235 783 235 726 q 227 865 235 839 q 199 890 219 890 l 129 890 q 118 913 118 890 q 129 935 118 935 l 392 932 q 519 573 410 871 q 663 175 628 275 l 668 175 q 779 449 707 272 q 964 932 919 793 l 1197 936 q 1210 913 1210 936 q 1197 890 1210 890 l 1144 890 q 1110 876 1118 890 q 1101 844 1101 861 q 1102 808 1101 826 q 1128 527 1103 790 q 1171 126 1154 264 q 1203 46 1179 46 l 1290 46 q 1306 23 1306 46 q 1290 0 1306 0 l 1108 1 z "},"N":{"ha":1139,"x_min":43,"x_max":1099,"o":"m 922 932 l 1086 936 q 1099 913 1099 936 q 1086 890 1099 890 l 1021 890 q 985 878 993 890 q 950 -17 953 831 q 928 -26 947 -26 q 899 -17 908 -26 q 260 749 493 465 l 254 749 q 263 144 260 243 q 292 46 265 46 l 368 46 q 381 23 381 46 q 368 0 381 0 l 221 1 l 56 -3 q 46 21 46 -3 q 56 44 46 44 l 101 44 q 147 52 133 44 q 163 82 161 60 q 190 829 190 394 l 181 840 q 131 881 153 872 q 51 890 110 890 q 43 913 43 890 q 51 935 43 935 l 303 932 q 878 204 797 313 l 883 204 q 869 822 875 756 q 838 889 864 889 l 771 889 q 758 912 758 889 q 771 935 758 935 l 922 932 z "},"O":{"ha":1144,"x_min":67,"x_max":1078,"o":"m 215 808 q 290 879 215 808 q 572 950 364 950 q 929 808 781 950 q 1078 466 1078 667 q 929 124 1078 265 q 572 -18 781 -18 q 215 124 364 -18 q 67 466 67 265 q 215 808 67 667 m 810 765 q 764 826 810 765 q 572 886 718 886 q 334 765 426 886 q 242 466 242 644 q 334 167 242 288 q 572 46 426 46 q 810 167 718 46 q 903 466 903 288 q 810 765 903 644 z "},"P":{"ha":829,"x_min":71,"x_max":792,"o":"m 89 935 l 264 932 l 424 932 q 699 861 607 932 q 792 688 792 790 q 707 506 792 586 q 490 426 622 426 q 342 460 418 426 l 342 168 q 371 46 342 46 l 451 46 q 465 23 465 46 q 451 0 465 0 l 392 0 l 332 1 l 276 1 l 82 -3 q 71 21 71 -3 q 82 44 71 44 l 142 44 q 188 58 176 44 q 199 108 199 71 l 199 767 q 169 889 199 889 l 89 889 q 78 912 78 889 q 89 935 78 935 m 415 496 q 582 549 522 496 q 642 680 642 601 q 577 817 642 758 q 392 876 513 876 q 353 863 365 876 q 342 813 342 849 l 342 504 q 415 496 379 496 z "},"Q":{"ha":1144,"x_min":67,"x_max":1510,"o":"m 1476 -124 q 1498 -122 1486 -114 q 1510 -136 1510 -131 q 1493 -167 1510 -142 q 1463 -211 1476 -192 q 1413 -271 1449 -231 q 1261 -349 1343 -349 q 1108 -317 1179 -349 q 974 -238 1036 -285 q 850 -144 913 -192 q 572 -18 699 -28 q 215 124 364 -18 q 67 466 67 265 q 215 808 67 667 q 572 950 364 950 q 929 808 781 950 q 1078 467 1078 667 q 977 176 1078 303 q 719 3 876 49 q 956 -72 829 3 q 1061 -136 1008 -104 q 1304 -211 1192 -211 q 1394 -191 1356 -211 q 1476 -124 1432 -171 m 810 765 q 764 826 810 765 q 572 886 718 886 q 334 765 426 886 q 242 466 242 644 q 334 167 242 288 q 572 46 426 46 q 810 167 718 46 q 903 466 903 288 q 810 765 903 644 z "},"R":{"ha":886,"x_min":71,"x_max":951,"o":"m 89 935 l 264 932 l 424 932 q 699 863 607 932 q 792 697 792 793 q 724 541 792 601 q 550 457 656 481 q 410 444 436 444 q 342 453 385 444 l 342 168 q 371 46 342 46 l 451 46 q 463 23 463 46 q 451 0 463 0 l 276 1 l 82 -3 q 71 21 71 -3 q 82 44 71 44 l 142 44 q 188 58 176 44 q 199 108 199 71 l 199 767 q 169 889 199 889 l 89 889 q 78 912 78 889 q 89 935 78 935 m 415 496 q 582 549 522 496 q 642 679 642 601 q 578 817 642 757 q 396 876 514 876 q 342 819 342 876 l 342 504 q 415 496 379 496 m 925 97 q 942 97 933 104 q 950 85 950 89 q 949 79 950 82 q 797 -18 881 -18 q 690 22 739 -18 q 608 124 642 63 q 542 249 574 185 q 390 446 463 411 l 479 463 q 591 406 543 451 q 668 303 639 360 q 724 192 697 247 q 860 61 786 61 q 925 97 886 61 z "},"S":{"ha":747,"x_min":64,"x_max":681,"o":"m 681 241 q 681 183 681 241 q 582 53 681 125 q 364 -18 483 -18 q 153 24 244 -18 l 164 -4 q 158 -20 168 -12 q 135 -28 147 -28 q 118 -21 122 -28 q 64 240 74 92 q 86 254 64 254 q 110 244 108 254 q 233 75 140 139 q 366 35 290 35 q 488 78 442 35 q 535 184 535 122 q 503 295 535 246 q 424 375 471 344 q 321 440 376 406 q 218 505 265 474 q 139 589 171 536 q 107 708 107 642 q 198 880 107 810 q 426 950 289 950 q 543 933 489 950 l 560 929 q 553 960 554 951 q 559 972 553 968 q 578 975 565 975 q 596 964 592 975 q 633 743 628 851 q 610 735 629 735 q 588 739 592 735 q 544 833 572 796 q 483 883 517 869 q 406 897 450 897 q 283 853 319 897 q 246 758 246 810 q 270 669 246 706 q 333 605 294 632 q 417 552 371 578 q 509 497 463 526 q 594 433 556 468 q 681 241 681 357 z "},"T":{"ha":838,"x_min":-36,"x_max":874,"o":"m 872 749 q 850 738 872 738 q 826 750 828 738 q 769 853 810 840 q 538 874 699 871 q 500 858 510 872 q 490 810 490 844 l 490 168 q 519 46 490 46 l 600 46 q 611 23 611 46 q 600 0 611 0 l 425 1 l 231 -3 q 219 21 219 -3 q 231 44 219 44 l 290 44 q 336 58 325 44 q 347 108 347 71 l 347 751 q 319 874 347 874 l 290 874 q 68 853 153 874 q 11 750 28 840 q -12 738 10 738 q -35 749 -35 738 l -24 961 q -1 974 -24 974 q 21 961 21 974 l 21 935 q 194 932 115 932 l 610 932 q 817 935 722 932 l 817 961 q 839 974 817 974 q 861 961 861 974 l 872 749 z "},"U":{"ha":1086,"x_min":63,"x_max":1038,"o":"m 876 933 l 1026 938 q 1038 914 1038 938 q 1026 890 1038 890 l 985 890 q 940 877 950 890 q 926 826 929 864 q 914 354 914 639 q 806 81 914 179 q 548 -18 697 -18 q 291 74 399 -18 q 183 335 183 167 l 183 767 q 154 889 183 889 l 74 889 q 63 912 63 889 q 74 935 63 935 l 249 933 l 443 938 q 454 914 454 938 q 443 890 454 890 l 383 890 q 338 877 349 890 q 326 826 326 864 l 326 374 q 399 152 326 226 q 586 78 472 78 q 767 160 700 78 q 835 403 835 243 q 829 756 835 624 q 797 889 824 889 l 719 889 q 708 912 708 889 q 719 935 708 935 l 876 933 z "},"V":{"ha":876,"x_min":-35,"x_max":932,"o":"m 765 932 l 921 935 q 932 913 932 935 q 921 892 932 892 l 854 892 q 804 846 824 892 q 623 396 749 715 q 456 -17 497 76 q 425 -29 450 -29 q 394 -17 400 -29 q 64 851 269 275 q 24 890 51 890 l -26 890 q -35 913 -35 890 q -26 935 -35 935 l 126 932 l 336 935 q 350 913 350 935 q 336 892 350 892 l 256 892 q 229 832 213 892 q 285 649 246 772 q 381 358 325 526 q 454 139 438 190 l 460 139 q 692 861 692 782 q 679 890 692 890 l 588 890 q 576 913 576 890 q 588 935 576 935 l 765 932 z "},"W":{"ha":1410,"x_min":-35,"x_max":1456,"o":"m 1289 932 l 1444 935 q 1456 913 1456 935 q 1444 892 1456 892 l 1378 892 q 1328 846 1347 892 q 1147 397 1274 717 q 978 -17 1019 76 q 949 -29 972 -29 q 919 -17 925 -29 q 690 586 850 144 q 606 365 658 506 q 456 -17 494 68 q 425 -29 450 -29 q 394 -17 400 -29 q 64 851 269 275 q 24 890 51 890 l -26 890 q -35 913 -35 890 q -26 935 -35 935 l 126 932 l 336 935 q 350 913 350 935 q 336 892 350 892 l 256 892 q 229 832 213 892 q 285 649 246 772 q 381 358 325 526 q 454 139 438 190 l 460 139 q 650 694 589 496 q 594 851 629 750 q 554 890 582 890 l 504 890 q 496 913 496 890 q 504 935 496 935 l 657 932 q 867 935 657 932 q 881 913 881 935 q 867 892 881 892 l 786 892 q 760 835 743 892 q 979 139 788 726 l 985 139 q 1215 861 1215 778 q 1203 890 1215 890 l 1111 890 q 1100 913 1100 890 q 1111 935 1100 935 l 1289 932 z "},"X":{"ha":1014,"x_min":-47,"x_max":1060,"o":"m 1038 0 l 846 1 l 663 -3 q 651 21 651 -3 q 663 44 651 44 l 710 44 q 736 61 736 44 q 705 118 736 74 q 486 400 674 163 q 232 51 250 136 q 235 42 229 42 l 304 42 q 315 21 315 42 q 304 0 315 0 l 118 1 l -33 -3 q -47 20 -47 -3 q -33 43 -47 43 l 18 43 q 79 72 47 43 q 442 456 182 168 q 146 821 190 772 q 87 875 114 860 q 18 890 60 890 l -1 890 q -10 913 -10 890 q -1 935 -10 935 l 174 932 l 367 935 q 375 913 375 935 q 367 892 375 892 l 300 892 q 286 876 286 892 q 529 549 286 860 q 735 801 697 743 q 774 874 774 858 q 767 890 774 890 l 715 890 q 704 913 704 890 q 715 935 704 935 l 876 932 l 1047 935 q 1060 913 1060 935 q 1047 892 1060 892 l 982 892 q 917 853 963 892 q 572 496 821 772 q 743 289 600 461 q 941 63 919 81 q 969 46 963 46 l 1038 46 q 1053 23 1053 46 q 1038 0 1053 0 z "},"Y":{"ha":842,"x_min":-94,"x_max":960,"o":"m 431 1 l 239 -3 q 228 21 228 -3 q 239 44 228 44 l 299 44 q 344 58 333 44 q 356 108 356 71 l 356 419 q 76 801 357 476 q 6 873 31 856 q -40 890 -19 890 l -85 890 q -94 913 -94 890 q -85 935 -94 935 l 88 932 l 283 935 q 296 912 296 935 q 283 889 296 889 l 186 889 q 236 824 186 883 q 450 526 397 635 l 454 526 q 578 695 483 576 q 685 838 674 814 q 697 874 697 861 q 682 890 697 890 l 628 890 q 615 913 615 890 q 628 935 615 935 l 792 932 l 946 935 q 960 912 960 935 q 946 889 960 889 l 911 889 q 851 867 876 889 q 622 638 750 782 q 493 446 493 493 l 493 146 q 522 46 493 46 l 603 46 q 614 23 614 46 q 603 0 614 0 l 431 1 z "},"Z":{"ha":901,"x_min":43,"x_max":838,"o":"m 54 0 q 43 17 43 0 q 58 43 43 33 q 476 676 88 61 l 606 881 l 257 881 q 206 858 233 881 q 129 710 154 814 q 111 697 128 697 q 81 710 78 697 q 111 947 94 832 q 144 968 114 968 q 174 949 174 968 q 176 935 174 938 q 188 932 179 932 l 793 932 q 807 917 807 932 q 794 899 807 907 q 644 682 779 893 q 381 264 508 471 l 253 56 l 640 56 q 790 271 729 56 q 810 286 794 286 q 836 274 836 286 l 804 0 q 798 -21 803 -15 q 774 -27 793 -26 q 754 -18 754 -28 q 658 -2 754 -4 q 54 0 561 0 z "},"[":{"ha":611,"x_min":114,"x_max":640,"o":"m 625 -551 l 114 -551 l 114 1231 l 625 1231 q 640 1199 640 1231 q 625 1167 640 1167 l 217 1167 l 217 -489 l 625 -489 q 640 -520 640 -489 q 625 -551 640 -551 z "},"\\":{"ha":361,"x_min":-200,"x_max":522,"o":"m -200 1040 q -160 1064 -181 1064 q -125 1036 -140 1064 l 522 -167 q 480 -190 499 -190 q 444 -157 461 -190 l -200 1040 z "},"]":{"ha":611,"x_min":15,"x_max":542,"o":"m 542 -551 l 31 -551 q 15 -520 15 -551 q 31 -489 15 -489 l 439 -489 l 439 1167 l 31 1167 q 15 1199 15 1167 q 31 1231 15 1231 l 542 1231 l 542 -551 z "},"^":{"ha":722,"x_min":49,"x_max":658,"o":"m 75 349 q 49 353 64 349 q 308 865 267 775 q 363 956 350 954 q 429 847 378 956 l 646 411 q 658 374 658 389 q 599 349 658 351 l 361 818 l 358 818 l 143 394 q 75 349 114 349 z "},"_":{"ha":694,"x_min":-3,"x_max":700,"o":"m 633 -106 q 685 -119 671 -106 q 699 -148 699 -132 q 699 -169 699 -164 l 49 -169 q 13 -156 25 -169 q -1 -128 0 -142 l -3 -112 l 633 -106 z "},"`":{"ha":500,"x_min":122,"x_max":418,"o":"m 122 978 q 136 1010 122 997 q 180 1022 150 1022 q 230 1002 210 1022 q 299 908 250 982 q 383 796 347 835 q 418 753 418 757 q 405 740 418 740 q 386 744 392 740 q 169 901 217 861 q 122 978 122 942 z "},"a":{"ha":654,"x_min":60,"x_max":644,"o":"m 521 450 q 507 171 521 450 q 568 78 507 78 q 610 92 593 78 q 631 107 628 107 q 644 93 644 107 q 603 21 644 57 q 513 -15 563 -15 q 437 26 463 -15 q 411 126 411 67 q 411 139 411 132 l 407 139 q 322 26 382 71 q 197 -18 263 -18 q 97 9 131 -18 q 63 86 63 36 q 153 235 63 165 q 404 351 243 304 q 407 407 407 399 q 378 531 407 482 q 293 579 350 579 q 201 547 236 579 q 165 453 165 514 q 167 422 165 433 q 129 408 157 408 q 81 425 101 408 q 60 474 60 442 q 139 581 60 536 q 306 625 218 625 q 521 450 521 625 m 253 58 q 354 126 310 58 q 404 311 399 194 q 239 222 286 268 q 192 124 192 176 q 253 58 192 58 z "},"b":{"ha":796,"x_min":15,"x_max":742,"o":"m 243 1021 l 242 522 l 244 522 q 463 625 328 625 q 669 542 597 625 q 742 322 742 460 q 647 83 742 183 q 419 -18 551 -18 q 330 -6 369 -18 q 271 22 290 7 q 234 49 251 36 q 206 61 217 61 l 203 61 q 158 -2 183 61 q 125 -65 133 -65 q 103 -49 103 -65 q 108 -14 103 -44 q 124 404 124 69 l 124 811 q 89 946 124 946 l 26 946 q 15 967 15 946 q 24 988 15 988 q 116 998 82 988 q 164 1013 150 1008 q 198 1027 178 1018 q 222 1038 218 1036 q 243 1021 243 1038 m 415 32 q 556 113 510 32 q 603 297 603 194 q 546 470 603 400 q 392 540 489 540 q 283 511 325 540 q 254 487 264 496 q 242 476 244 478 l 242 228 q 415 32 258 32 z "},"c":{"ha":635,"x_min":54,"x_max":597,"o":"m 419 625 q 528 599 485 625 q 571 533 571 572 q 518 471 571 493 q 349 557 428 557 q 221 498 271 557 q 171 325 171 439 q 238 147 171 211 q 393 82 304 82 q 553 126 486 82 q 581 142 576 142 q 597 125 597 142 q 567 76 597 108 q 476 13 536 43 q 350 -18 415 -18 q 134 65 214 -18 q 54 261 54 149 q 165 519 54 413 q 419 625 275 625 z "},"d":{"ha":796,"x_min":54,"x_max":779,"o":"m 674 1021 l 672 522 l 672 203 q 692 92 672 108 q 721 83 703 83 l 768 88 q 779 67 779 88 q 771 46 779 47 q 617 -6 678 31 q 592 -18 597 -18 q 557 86 563 -18 l 554 86 q 324 -18 471 -18 q 126 65 199 -18 q 54 285 54 147 q 149 524 54 424 q 376 625 244 625 q 554 564 475 625 l 554 811 q 519 946 554 946 l 457 946 q 446 967 446 946 q 454 988 446 988 q 546 998 511 988 q 594 1013 581 1008 q 628 1027 608 1018 q 653 1038 649 1036 q 674 1021 674 1038 m 381 575 q 240 494 286 575 q 193 310 193 413 q 250 137 193 207 q 404 67 307 67 q 511 97 471 67 q 542 120 532 111 q 554 131 551 129 l 554 379 q 381 575 538 575 z "},"e":{"ha":647,"x_min":54,"x_max":594,"o":"m 379 100 q 471 111 432 100 q 528 136 510 122 l 558 161 q 579 172 572 172 q 594 156 594 172 q 540 61 594 125 q 461 6 514 29 q 343 -18 408 -18 q 138 74 221 -18 q 54 285 54 165 q 153 529 54 435 q 371 624 251 624 q 523 559 461 624 q 585 389 585 494 q 575 358 585 367 q 531 347 565 349 q 361 343 496 344 q 129 336 226 342 q 206 159 129 218 q 379 100 283 100 m 467 432 q 428 514 467 479 q 327 549 389 549 q 207 503 265 549 q 133 379 149 458 q 279 392 169 383 q 428 406 389 401 q 467 432 467 411 z "},"f":{"ha":479,"x_min":38,"x_max":610,"o":"m 217 1 l 56 -3 q 46 18 46 -3 q 53 39 46 39 l 133 39 q 150 63 150 39 l 150 554 l 53 554 q 38 577 38 554 q 50 600 38 600 q 147 629 138 600 q 162 683 153 647 q 178 744 171 718 q 197 805 185 769 q 224 867 210 840 q 263 921 239 893 q 314 967 286 949 q 475 1006 379 1006 q 570 978 531 1006 q 610 917 610 951 q 540 846 610 868 q 507 894 521 876 q 467 930 493 913 q 409 947 440 947 q 352 933 378 947 q 311 892 326 919 q 287 839 296 865 q 274 772 278 813 q 268 647 268 718 l 268 607 l 425 607 q 440 581 440 607 q 428 554 440 554 l 268 554 l 268 164 q 297 42 268 42 l 365 42 q 376 21 376 42 q 368 0 376 0 l 217 1 z "},"g":{"ha":708,"x_min":47,"x_max":704,"o":"m 289 50 l 453 57 q 619 18 553 57 q 685 -99 685 -21 q 554 -299 685 -210 q 275 -389 424 -389 q 47 -251 47 -389 q 100 -136 47 -194 q 225 -53 153 -78 l 225 -49 q 79 54 79 -31 q 113 130 79 89 q 213 186 146 171 l 213 189 q 109 268 149 213 q 69 392 69 324 q 144 561 69 497 q 324 625 219 625 q 503 544 429 625 q 629 619 567 619 q 684 601 664 619 q 704 551 704 583 q 665 497 704 519 q 575 539 614 539 q 547 531 561 539 q 533 516 533 522 q 548 473 533 510 q 563 394 563 436 q 493 228 563 283 q 315 169 424 172 q 229 156 265 169 q 165 94 165 129 q 289 50 165 50 m 421 -46 l 294 -53 q 192 -123 233 -75 q 150 -225 150 -171 q 307 -340 150 -340 q 495 -282 400 -340 q 590 -140 590 -224 q 541 -69 590 -92 q 421 -46 492 -46 m 313 215 q 444 394 444 215 q 415 524 444 469 q 315 579 385 579 q 188 394 188 579 q 217 268 188 321 q 313 215 246 215 z "},"h":{"ha":842,"x_min":44,"x_max":814,"o":"m 272 1021 l 271 542 l 272 542 q 368 602 314 579 q 468 625 422 625 q 706 358 706 625 l 706 164 q 735 42 706 42 l 803 42 q 814 21 814 42 q 806 0 814 0 q 654 1 806 0 l 493 -3 q 483 18 483 -3 q 490 39 483 39 l 571 39 q 588 63 588 39 l 588 297 q 547 493 588 438 q 414 549 507 549 q 271 493 321 549 l 271 164 q 300 42 271 42 l 368 42 q 379 21 379 42 q 371 0 379 0 l 219 1 l 58 -3 q 49 18 49 -3 q 56 39 49 39 l 136 39 q 153 63 153 39 l 153 811 q 118 946 153 946 l 56 946 q 44 967 44 946 q 53 988 44 988 q 145 998 111 988 q 193 1013 179 1008 q 227 1027 207 1018 q 251 1038 247 1036 q 272 1021 272 1038 z "},"i":{"ha":414,"x_min":43,"x_max":374,"o":"m 214 1 l 53 -3 q 43 18 43 -3 q 50 39 43 39 l 131 39 q 147 63 147 39 l 147 389 q 108 524 147 524 l 81 524 q 69 544 69 524 q 78 565 69 565 q 217 639 142 565 q 250 664 243 664 q 271 647 271 664 q 268 573 271 636 q 265 413 265 510 l 265 164 q 294 42 265 42 l 363 42 q 374 21 374 42 q 365 0 374 0 l 214 1 m 264 887 q 264 871 264 887 q 243 834 264 856 q 192 813 222 813 q 138 833 161 813 q 115 885 115 854 q 137 939 115 917 q 190 961 158 961 q 242 940 221 961 q 264 887 264 918 z "},"j":{"ha":415,"x_min":-126,"x_max":304,"o":"m 299 413 l 299 58 q 271 -142 299 -58 q 210 -276 243 -226 q 121 -358 178 -325 q 0 -390 64 -390 q -95 -367 -64 -390 q -126 -314 -126 -344 q -65 -247 -126 -268 q 50 -328 -14 -328 q 113 -305 86 -328 q 151 -252 139 -282 q 171 -175 164 -222 q 181 -21 181 -107 l 181 389 q 142 524 181 524 l 114 524 q 103 544 103 524 q 111 565 103 565 q 250 639 175 565 q 283 664 276 664 q 304 647 304 664 q 301 573 304 636 q 299 413 299 510 m 299 887 q 299 871 299 887 q 278 834 299 856 q 226 813 257 813 q 173 833 196 813 q 150 885 150 854 q 172 939 150 917 q 225 961 194 961 q 277 940 256 961 q 299 887 299 918 z "},"k":{"ha":731,"x_min":43,"x_max":735,"o":"m 271 1021 l 269 493 l 269 285 l 458 468 q 518 560 518 525 q 507 572 518 572 l 440 572 q 429 590 429 572 q 436 608 429 608 q 576 606 436 608 l 679 608 q 689 591 689 608 q 682 574 689 574 l 660 574 q 619 556 640 574 l 403 353 q 671 57 583 118 q 721 42 692 42 q 735 21 735 42 q 719 0 735 0 q 651 1 700 1 l 585 0 q 553 17 572 0 q 325 281 513 50 l 269 228 l 269 164 q 299 42 269 42 l 367 42 q 378 21 378 42 q 369 0 378 0 l 218 1 l 57 -3 q 47 18 47 -3 q 54 39 47 39 l 135 39 q 151 63 151 39 l 151 811 q 117 946 151 946 l 54 946 q 43 967 43 946 q 51 988 43 988 q 143 998 108 988 q 192 1013 178 1008 q 226 1027 206 1018 q 250 1038 246 1036 q 271 1021 271 1038 z "},"l":{"ha":415,"x_min":43,"x_max":378,"o":"m 271 1021 l 269 493 l 269 164 q 299 42 269 42 l 367 42 q 378 21 378 42 q 369 0 378 0 q 218 1 369 0 l 57 -3 q 47 18 47 -3 q 54 39 47 39 l 135 39 q 151 63 151 39 l 151 811 q 117 946 151 946 l 54 946 q 43 967 43 946 q 51 988 43 988 q 143 998 108 988 q 192 1013 178 1008 q 226 1027 206 1018 q 250 1038 246 1036 q 271 1021 271 1038 z "},"m":{"ha":1253,"x_min":47,"x_max":1225,"o":"m 268 647 l 265 539 l 268 539 q 365 601 310 578 q 467 625 421 625 q 663 517 610 625 l 665 517 q 890 625 779 625 q 1117 358 1117 625 l 1117 164 q 1146 42 1117 42 l 1214 42 q 1225 21 1225 42 q 1217 0 1225 0 q 1065 1 1217 0 l 904 -3 q 894 18 894 -3 q 901 39 894 39 l 982 39 q 999 63 999 39 l 999 297 q 963 494 999 439 q 828 549 926 549 q 746 528 788 549 q 678 476 704 508 q 693 358 693 424 l 693 164 q 722 42 693 42 l 790 42 q 801 21 801 42 q 793 0 801 0 l 642 1 l 481 -3 q 471 18 471 -3 q 478 39 471 39 l 558 39 q 575 63 575 39 l 575 297 q 539 494 575 439 q 411 549 503 549 q 269 493 319 549 l 269 164 q 299 42 269 42 l 367 42 q 378 21 378 42 q 369 0 378 0 l 218 1 l 57 -3 q 47 18 47 -3 q 54 39 47 39 l 135 39 q 151 63 151 39 l 151 389 q 113 524 151 524 l 85 524 q 74 544 74 524 q 82 565 74 565 q 157 590 119 565 q 219 639 194 614 q 249 664 243 664 q 268 647 268 664 z "},"n":{"ha":833,"x_min":47,"x_max":806,"o":"m 268 647 l 265 539 l 268 539 q 365 601 310 578 q 467 625 421 625 q 697 358 697 625 l 697 164 q 726 42 697 42 l 794 42 q 806 21 806 42 q 797 0 806 0 q 646 1 797 0 l 485 -3 q 475 18 475 -3 q 482 39 475 39 l 563 39 q 579 63 579 39 l 579 297 q 541 494 579 439 q 411 549 503 549 q 269 493 319 549 l 269 164 q 299 42 269 42 l 367 42 q 378 21 378 42 q 369 0 378 0 l 218 1 l 57 -3 q 47 18 47 -3 q 54 39 47 39 l 135 39 q 151 63 151 39 l 151 389 q 113 524 151 524 l 85 524 q 74 544 74 524 q 82 565 74 565 q 157 590 119 565 q 219 639 194 614 q 249 664 243 664 q 268 647 268 664 z "},"o":{"ha":763,"x_min":47,"x_max":715,"o":"m 47 308 q 47 375 47 308 q 149 533 47 442 q 381 625 250 625 q 614 531 513 625 q 715 302 715 438 q 617 74 715 167 q 382 -18 519 -18 q 146 78 244 -18 q 47 308 47 175 m 375 575 q 233 493 281 575 q 186 302 186 411 q 235 113 186 193 q 383 32 285 32 q 529 111 482 32 q 576 280 576 190 q 558 429 576 369 q 493 532 540 489 q 375 575 446 575 z "},"p":{"ha":808,"x_min":32,"x_max":754,"o":"m 250 647 l 246 514 l 249 514 q 485 625 336 625 q 682 542 610 625 q 754 322 754 460 q 659 83 754 183 q 432 -18 564 -18 q 345 -6 385 -18 q 291 15 306 6 q 253 43 276 25 q 254 -97 254 19 l 254 -211 q 283 -333 254 -333 l 351 -333 q 363 -354 363 -333 q 354 -375 363 -375 l 203 -374 l 42 -378 q 32 -357 32 -378 q 39 -336 32 -336 l 119 -336 q 136 -312 136 -336 l 136 389 q 97 524 136 524 l 69 524 q 58 544 58 524 q 67 565 58 565 q 141 590 104 565 q 201 639 178 614 q 231 664 225 664 q 250 647 250 664 m 428 32 q 569 113 522 32 q 615 297 615 194 q 558 470 615 400 q 404 540 501 540 q 297 511 338 540 q 267 487 276 496 q 254 476 257 478 l 254 228 q 428 32 271 32 z "},"q":{"ha":789,"x_min":54,"x_max":781,"o":"m 621 -374 l 460 -378 q 450 -357 450 -378 q 457 -336 450 -336 l 538 -336 q 554 -312 554 -336 l 554 85 l 551 85 q 333 -18 468 -18 q 126 65 199 -18 q 54 285 54 147 q 149 524 54 424 q 376 625 244 625 q 466 613 426 625 q 525 585 506 600 q 562 558 544 571 q 590 546 579 546 l 593 546 q 638 609 613 546 q 671 672 663 672 q 693 656 693 672 q 689 622 693 653 q 672 203 672 519 l 672 -211 q 701 -333 672 -333 l 769 -333 q 781 -354 781 -333 q 772 -375 781 -375 l 621 -374 m 381 575 q 240 494 286 575 q 193 310 193 413 q 250 137 193 207 q 404 67 307 67 q 511 97 471 67 q 542 120 532 111 q 554 131 551 129 l 554 379 q 381 575 538 575 z "},"r":{"ha":543,"x_min":49,"x_max":535,"o":"m 269 647 l 267 522 l 269 522 q 357 591 301 557 q 456 625 413 625 q 517 608 499 625 q 535 567 535 592 q 518 519 535 543 q 472 483 501 496 q 366 529 419 529 q 271 475 313 529 l 271 164 q 300 42 271 42 l 368 42 q 379 21 379 42 q 371 0 379 0 l 219 1 l 58 -3 q 49 18 49 -3 q 56 39 49 39 l 136 39 q 153 63 153 39 l 153 389 q 114 524 153 524 l 86 524 q 75 544 75 524 q 83 565 75 565 q 158 590 121 565 q 220 639 196 614 q 250 664 244 664 q 269 647 269 664 z "},"s":{"ha":531,"x_min":64,"x_max":485,"o":"m 485 157 q 415 28 485 75 q 258 -18 346 -18 q 128 6 169 -18 q 125 -15 128 -11 q 108 -21 122 -21 q 93 -10 94 -21 q 77 94 89 24 q 65 174 65 165 q 73 188 65 183 q 90 191 81 192 q 101 183 100 190 q 268 26 149 26 q 347 52 314 26 q 379 122 379 78 q 350 198 379 165 q 279 253 321 231 q 196 299 238 275 q 125 360 154 322 q 96 450 96 399 q 156 578 96 532 q 308 625 217 625 q 399 611 357 625 q 396 638 393 633 q 410 643 399 643 q 425 640 421 643 q 433 622 429 638 q 442 581 438 606 q 454 520 446 557 q 465 474 463 483 q 461 462 467 465 q 444 458 456 458 q 428 469 432 458 q 296 581 386 581 q 225 555 251 581 q 199 490 199 529 q 228 421 199 450 q 299 371 257 392 q 384 326 342 350 q 456 258 426 301 q 485 157 485 215 z "},"t":{"ha":469,"x_min":40,"x_max":453,"o":"m 125 167 l 125 554 l 54 554 q 40 574 40 554 q 51 596 40 594 q 153 657 114 608 q 219 785 192 706 q 237 794 222 794 q 251 778 251 794 q 247 709 251 763 q 243 607 243 656 l 415 607 q 429 581 429 607 q 418 554 429 554 l 243 554 l 243 197 q 267 97 243 129 q 346 65 290 65 q 422 106 393 65 q 439 119 433 119 q 453 107 453 119 q 404 24 453 69 q 283 -22 356 -22 q 167 26 210 -22 q 125 167 125 75 z "},"u":{"ha":785,"x_min":21,"x_max":768,"o":"m 128 606 l 244 610 q 258 599 258 610 q 254 575 258 592 q 247 461 247 550 l 247 310 q 281 113 247 168 q 408 58 315 58 q 486 81 450 58 q 543 143 522 104 l 543 443 q 514 565 543 565 l 446 565 q 435 587 435 567 q 443 607 435 607 l 542 606 l 658 610 q 672 599 672 610 q 668 575 672 592 q 661 461 661 550 l 661 203 q 681 92 661 108 q 710 83 692 83 l 757 88 q 768 67 768 88 q 760 46 768 47 q 606 -6 667 31 q 581 -18 586 -18 q 547 83 547 -18 l 544 83 q 451 8 507 33 q 346 -18 396 -18 q 129 249 129 -18 l 129 443 q 100 565 129 565 l 32 565 q 21 587 21 567 q 29 607 21 607 l 128 606 z "},"v":{"ha":640,"x_min":-11,"x_max":647,"o":"m 536 606 l 638 608 q 647 590 647 608 q 638 572 647 572 l 601 572 q 579 560 586 572 q 458 278 540 496 q 351 -19 375 61 q 324 -32 346 -32 q 297 -18 303 -32 q 71 518 265 111 q 40 561 54 551 q -3 571 26 571 q -11 590 -11 571 q -3 608 -11 608 l 129 606 q 279 608 129 606 q 288 590 288 608 q 279 572 288 572 l 213 572 q 197 560 197 572 q 225 481 197 553 q 356 131 324 222 q 415 315 381 217 q 467 467 450 414 q 485 545 485 519 q 468 571 485 571 l 411 571 q 400 590 400 571 q 408 608 400 608 l 536 606 z "},"w":{"ha":976,"x_min":-11,"x_max":985,"o":"m 874 606 l 975 608 q 985 590 985 608 q 975 572 985 572 l 939 572 q 917 560 924 572 q 795 278 878 496 q 689 -19 713 61 q 662 -32 683 -32 q 635 -18 640 -32 q 492 363 607 89 q 351 -19 386 99 q 324 -32 346 -32 q 297 -18 303 -32 q 71 518 265 111 q 40 561 54 551 q -3 571 26 571 q -11 590 -11 571 q -3 608 -11 608 l 129 606 l 258 608 q 267 590 267 608 q 258 572 267 572 l 213 572 q 197 560 197 572 q 225 481 197 553 q 356 131 324 222 q 458 438 376 203 q 395 558 413 546 q 349 571 378 571 q 340 590 340 571 q 349 608 340 608 l 481 606 l 631 608 q 639 590 639 608 q 631 572 639 572 l 564 572 q 549 560 549 572 q 611 368 549 549 q 693 131 674 188 q 753 315 718 217 q 805 467 788 414 q 822 545 822 519 q 806 571 822 571 l 749 571 q 739 590 739 571 q 746 608 739 608 l 874 606 z "},"x":{"ha":764,"x_min":19,"x_max":744,"o":"m 608 606 l 717 608 q 726 590 726 608 q 717 572 726 572 l 661 572 q 639 563 649 572 q 435 336 629 553 q 645 74 614 107 q 688 42 676 42 l 733 42 q 744 21 744 42 q 733 0 744 0 l 585 1 l 407 -1 q 399 19 399 -1 q 407 39 399 39 l 478 39 q 494 51 494 39 q 411 189 494 82 q 361 253 371 240 q 242 112 254 126 q 219 78 231 97 q 206 42 201 50 l 275 42 q 285 21 285 42 q 275 0 285 0 l 149 1 l 28 -1 q 19 19 19 -1 q 28 39 19 39 l 72 39 q 107 53 93 39 q 328 293 190 140 q 133 535 210 442 q 72 571 101 571 l 44 571 q 36 590 36 571 q 44 608 36 608 l 194 606 l 361 608 q 369 590 369 608 q 361 572 369 572 l 278 572 q 267 560 267 572 q 403 378 267 547 q 519 522 503 492 q 536 561 536 551 q 529 571 536 571 l 476 571 q 469 590 469 571 q 476 608 469 608 l 608 606 z "},"y":{"ha":653,"x_min":-68,"x_max":657,"o":"m 546 606 l 647 608 q 657 590 657 608 q 647 572 657 572 l 613 572 q 586 553 596 572 q 438 193 522 431 q 336 -87 353 -44 q 25 -432 203 -432 q -61 -397 -39 -432 q -67 -365 -67 -386 q -35 -307 -67 -344 q 56 -335 6 -335 q 165 -270 107 -335 q 256 -133 222 -206 q 289 -24 289 -60 q 275 63 289 13 q 233 182 261 114 q 185 298 206 250 q 127 424 164 346 q 78 527 90 501 q 53 562 67 553 q 7 571 39 571 q -1 590 -1 571 q 7 608 -1 608 l 139 606 l 289 608 q 297 590 297 608 q 289 572 297 572 l 226 572 q 208 562 208 572 q 230 495 208 551 q 292 332 251 439 q 365 131 333 225 q 424 310 389 211 q 478 465 460 410 q 496 546 496 521 q 478 571 496 571 l 413 571 q 406 590 406 571 q 413 608 406 608 l 546 606 z "},"z":{"ha":631,"x_min":49,"x_max":585,"o":"m 557 -18 q 538 -28 557 -28 q 519 -20 519 -28 q 510 -9 519 -12 q 450 -3 500 -6 q 57 0 367 0 q 49 13 49 0 q 57 32 49 25 q 159 172 72 39 q 325 436 246 306 l 404 565 l 207 565 q 111 457 149 565 q 90 450 108 450 q 71 457 71 450 q 113 624 79 524 q 135 633 115 633 q 156 621 156 633 q 161 607 156 608 l 556 607 q 565 592 565 607 q 556 574 565 578 q 471 451 547 571 q 311 199 394 332 q 208 43 228 67 l 446 43 q 525 94 501 43 q 543 165 536 122 q 565 175 544 175 q 585 165 585 175 q 566 76 575 139 q 557 -18 557 13 z "},"{":{"ha":467,"x_min":-1,"x_max":633,"o":"m 314 885 l 325 594 q 281 440 325 501 q 140 375 236 379 l 140 368 q 281 303 236 364 q 325 149 325 242 l 314 -206 q 317 -297 314 -264 q 335 -374 319 -331 q 379 -439 350 -417 q 599 -493 450 -493 q 633 -529 633 -493 q 619 -565 633 -565 q 315 -462 411 -565 q 218 -203 218 -358 l 226 122 q 192 281 226 226 q 58 336 157 336 l 18 333 q -1 367 -1 333 q 4 396 -1 382 q 18 410 10 410 q 58 407 40 407 q 192 462 157 407 q 226 621 226 517 l 218 882 q 315 1141 218 1038 q 619 1244 411 1244 q 633 1208 633 1244 q 599 1172 633 1172 q 379 1118 450 1172 q 335 1053 350 1096 q 317 976 319 1010 q 314 885 314 943 z "},"|":{"ha":283,"x_min":111,"x_max":171,"o":"m 133 -210 q 111 -204 124 -210 l 111 1001 q 149 1046 111 1046 l 171 1040 l 167 -168 q 133 -210 167 -210 z "},"}":{"ha":467,"x_min":-167,"x_max":468,"o":"m 153 -206 l 142 149 q 186 303 142 242 q 326 368 231 364 l 326 375 q 186 440 231 379 q 142 594 142 501 l 153 885 q 150 976 153 943 q 132 1053 147 1010 q 88 1118 117 1096 q -132 1172 17 1172 q -167 1208 -167 1172 q -153 1244 -167 1244 q 152 1141 56 1244 q 249 882 249 1038 l 240 621 q 275 462 240 517 q 408 407 310 407 l 449 410 q 463 396 457 410 q 468 367 468 382 q 449 333 468 333 q 408 336 426 336 q 275 281 310 336 q 240 122 240 226 l 249 -203 q 152 -462 249 -358 q -153 -565 56 -565 q -167 -529 -167 -565 q -132 -493 -167 -493 q 88 -439 17 -493 q 132 -374 117 -417 q 150 -297 147 -331 q 153 -206 153 -264 z "},"~":{"ha":636,"x_min":50,"x_max":561,"o":"m 244 431 l 374 419 q 473 448 432 419 q 525 536 514 476 q 540 547 526 547 q 561 525 561 547 q 513 390 561 444 q 381 335 465 335 q 308 343 356 335 q 240 351 261 351 q 141 320 183 351 q 88 231 99 289 q 74 219 85 219 q 57 226 64 219 q 50 246 50 233 q 106 380 53 329 q 244 431 158 431 z "},"":{"ha":444,"x_min":143,"x_max":326,"o":"m 183 356 q 208 368 196 368 q 253 319 253 368 l 253 214 q 326 -308 253 -139 q 226 -347 265 -347 q 153 -185 153 -347 q 168 54 153 -126 q 183 291 183 235 q 183 356 183 347 m 301 544 q 301 528 301 544 q 278 487 301 511 q 223 463 256 463 q 167 485 190 463 q 143 540 143 508 q 165 597 143 572 q 219 621 186 621 q 276 599 251 621 q 301 544 301 578 z "},"":{"ha":744,"x_min":118,"x_max":661,"o":"m 483 800 q 592 774 549 800 q 635 708 635 747 q 582 646 635 668 q 471 721 526 700 l 403 263 q 468 257 426 257 q 552 272 510 257 q 617 301 594 286 q 644 317 640 317 q 661 300 661 317 q 631 251 661 283 q 540 188 600 218 q 414 157 479 157 l 386 157 q 363 -1 371 50 q 349 -26 360 -18 q 328 -35 338 -35 q 304 -28 318 -35 l 332 167 q 174 267 231 190 q 118 436 118 343 q 207 669 118 569 q 421 793 296 769 l 446 972 q 479 1010 451 1010 q 513 1000 493 1010 q 483 800 500 917 m 235 510 q 349 285 235 349 l 411 732 l 407 732 q 285 673 335 732 q 235 510 235 614 z "},"":{"ha":735,"x_min":43,"x_max":756,"o":"m 319 488 l 472 506 q 478 490 478 506 l 478 468 q 481 453 478 463 q 471 433 483 433 q 407 439 453 433 q 333 446 361 444 q 350 335 350 379 q 322 160 350 232 q 397 136 351 153 q 594 103 497 103 q 728 181 692 103 q 744 189 733 193 q 754 179 754 185 q 753 169 754 174 q 678 35 715 72 q 562 -18 626 -18 q 453 -1 497 -18 q 360 46 410 15 q 286 88 311 76 q 207 8 251 33 q 124 -18 163 -18 q 64 1 85 -18 q 43 47 43 19 q 89 135 43 99 q 225 171 135 171 l 242 169 q 246 226 246 193 q 234 303 246 258 q 211 372 222 347 q 178 443 200 396 l 97 440 q 87 452 90 440 q 87 476 83 464 q 99 488 90 488 q 128 485 108 488 q 160 483 147 483 q 117 656 117 576 q 203 863 117 775 q 410 950 289 950 q 636 849 531 950 q 654 872 646 863 q 680 872 671 883 q 686 856 689 860 q 611 656 632 767 q 598 650 608 650 q 577 658 588 650 q 569 674 567 665 q 586 750 586 710 q 564 792 582 765 q 528 836 546 818 q 411 882 482 882 q 297 832 340 882 q 253 699 253 782 q 283 576 253 646 q 319 488 313 506 m 122 29 q 222 107 185 29 q 192 110 203 110 q 92 56 92 110 q 122 29 92 29 z "},"":{"ha":774,"x_min":40,"x_max":732,"o":"m 146 281 q 83 479 83 367 q 146 678 83 592 l 68 740 q 40 794 40 764 q 86 844 40 825 q 168 744 104 818 l 188 722 q 386 796 272 796 q 585 722 500 796 q 686 844 661 808 q 732 794 732 825 q 704 740 732 764 l 626 678 q 689 479 689 592 q 626 281 689 367 l 704 218 q 732 164 732 194 q 686 114 732 133 q 604 214 668 140 l 585 236 q 386 163 500 163 q 188 236 272 163 q 86 114 111 150 q 40 164 40 133 q 68 218 40 194 l 146 281 m 386 250 q 430 250 386 250 q 539 309 474 250 q 604 481 604 368 q 540 651 604 593 q 386 708 475 708 q 233 651 297 708 q 168 481 168 593 q 233 309 168 368 q 386 250 299 250 z "},"":{"ha":842,"x_min":-94,"x_max":960,"o":"m 792 932 l 946 935 q 960 912 960 935 q 946 889 960 889 l 911 889 q 851 867 876 889 q 664 685 772 801 q 513 497 556 569 l 668 500 q 719 487 706 500 q 733 458 733 474 q 733 436 733 442 l 493 436 l 493 269 l 668 272 q 719 259 706 272 q 733 230 733 246 q 733 208 733 214 l 493 208 l 493 146 q 522 46 493 46 l 603 46 q 614 23 614 46 q 603 0 614 0 l 431 1 l 239 -3 q 228 21 228 -3 q 239 44 228 44 l 299 44 q 344 58 333 44 q 356 108 356 71 l 356 208 l 156 208 q 119 222 132 208 q 106 250 107 236 l 104 265 q 356 267 254 265 l 356 419 q 351 436 356 425 l 156 436 q 119 450 132 436 q 106 478 107 464 l 104 493 q 319 494 231 493 q 76 801 260 586 q 6 873 31 856 q -40 890 -19 890 l -85 890 q -94 913 -94 890 q -85 935 -94 935 l 88 932 l 283 935 q 296 912 296 935 q 283 889 296 889 l 186 889 q 236 824 186 883 q 450 526 397 635 l 454 526 q 578 695 483 576 q 685 838 674 814 q 697 874 697 861 q 682 890 697 890 l 628 890 q 615 913 615 890 q 628 935 615 935 l 792 932 z "},"":{"ha":283,"x_min":110,"x_max":171,"o":"m 133 -210 q 111 -204 124 -210 l 110 292 q 124 316 110 308 q 153 322 139 324 l 167 322 l 167 -168 q 133 -210 167 -210 m 168 533 q 131 510 168 510 q 125 510 128 510 l 111 511 l 111 1001 q 149 1046 111 1046 l 171 1040 l 168 533 z "},"":{"ha":728,"x_min":56,"x_max":696,"o":"m 171 335 q 147 365 171 335 q 89 468 122 394 q 56 632 56 542 q 113 803 56 722 q 306 922 171 885 q 472 992 386 992 q 603 960 557 992 q 650 880 650 928 q 583 796 650 832 q 422 922 517 922 q 338 801 338 922 q 464 533 338 699 q 569 392 517 465 q 659 229 622 318 q 696 49 696 140 q 628 -117 696 -43 q 407 -224 561 -192 q 339 -265 385 -246 q 249 -283 293 -283 q 112 -245 161 -283 q 63 -155 63 -207 q 122 -64 63 -103 q 195 -158 143 -117 q 289 -200 247 -200 q 356 -170 331 -200 q 382 -69 382 -140 q 349 78 382 1 q 267 215 315 154 q 171 335 219 275 m 263 436 q 357 306 310 374 q 438 154 404 239 q 471 -15 471 69 q 438 -169 471 -99 q 583 32 583 -119 q 469 349 583 181 q 375 485 422 418 q 261 768 261 646 q 278 864 261 828 q 149 690 149 792 q 263 436 149 588 z "},"":{"ha":528,"x_min":92,"x_max":465,"o":"m 213 792 q 203 782 213 792 q 163 771 193 771 q 112 792 132 771 q 92 844 92 814 q 113 893 92 874 q 162 913 133 913 q 212 892 190 913 q 233 843 233 872 q 213 792 233 814 m 445 792 q 435 782 445 792 q 394 771 425 771 q 344 792 364 771 q 324 843 324 814 q 345 892 324 872 q 394 913 367 913 q 444 892 422 913 q 465 843 465 872 q 445 792 465 814 z "},"":{"ha":1028,"x_min":49,"x_max":979,"o":"m 842 794 q 910 724 842 794 q 979 457 979 654 q 842 121 979 260 q 513 -18 706 -18 q 184 122 319 -18 q 49 456 49 261 q 183 792 49 651 q 511 933 318 933 q 842 794 704 933 m 512 43 q 596 43 512 43 q 799 164 681 43 q 918 458 918 285 q 799 751 918 631 q 511 872 681 872 q 226 750 342 872 q 110 456 110 628 q 226 164 110 285 q 512 43 343 43 m 546 200 q 326 266 415 200 q 236 453 236 332 q 331 649 236 574 q 554 724 426 724 q 675 696 617 724 l 675 718 q 688 725 675 725 q 701 718 701 725 q 708 594 701 654 q 705 589 710 592 q 690 586 700 586 q 678 594 681 586 l 674 631 q 536 683 615 683 q 403 624 457 683 q 349 461 349 564 q 406 300 349 358 q 544 242 463 242 q 688 286 625 242 l 693 321 q 709 329 694 329 q 724 321 724 329 q 717 206 717 288 q 702 200 717 200 q 688 206 688 200 l 688 229 q 546 200 611 200 z "},"":{"ha":494,"x_min":74,"x_max":413,"o":"m 343 850 q 338 699 343 850 q 365 647 338 647 q 385 659 375 647 q 396 671 394 671 q 404 655 404 671 q 385 618 404 639 q 338 597 365 597 q 299 615 310 597 q 289 653 289 632 q 289 681 289 675 l 282 681 q 235 619 268 643 q 161 596 201 596 q 90 654 90 596 q 139 736 90 699 q 274 799 188 774 q 247 906 274 889 q 214 914 235 914 q 157 824 157 914 q 126 810 144 810 q 89 848 89 810 q 133 917 89 886 q 222 947 176 947 q 343 850 343 947 m 164 677 q 164 663 164 677 q 194 649 164 649 q 249 683 225 649 q 274 771 274 717 q 194 733 224 761 q 164 677 164 706 m 160 543 l 300 538 q 407 551 356 538 q 413 531 413 544 q 377 485 413 499 q 300 472 342 472 l 150 479 q 83 472 103 479 q 74 500 74 489 q 160 543 74 543 z "},"":{"ha":636,"x_min":65,"x_max":549,"o":"m 308 532 q 326 494 326 514 q 305 450 326 475 q 241 383 283 425 q 171 307 199 342 q 241 231 199 272 q 305 164 283 189 q 326 119 326 139 q 308 82 326 100 q 199 194 260 138 q 101 278 138 250 l 65 307 q 308 532 199 407 m 531 532 q 549 494 549 514 q 527 450 549 475 q 463 383 506 425 q 393 307 421 342 q 463 231 421 272 q 527 164 506 189 q 549 119 549 139 q 531 82 549 100 q 421 194 482 138 q 324 278 360 250 l 288 307 q 531 532 421 407 z "},"":{"ha":722,"x_min":15,"x_max":683,"o":"m 301 494 l 660 500 q 681 482 678 500 q 683 458 683 474 q 681 419 683 443 l 676 196 q 661 162 676 172 q 638 151 646 151 q 628 153 629 151 l 611 153 l 618 440 q 67 435 478 435 q 31 449 43 435 q 17 479 18 464 l 15 494 l 301 494 z "},"":{"ha":1028,"x_min":49,"x_max":979,"o":"m 979 458 q 979 359 979 458 q 844 122 979 261 q 515 -18 708 -18 q 185 122 321 -18 q 49 458 49 261 q 185 794 49 654 q 515 933 322 933 q 844 794 708 933 q 979 458 979 654 m 228 164 q 287 103 228 164 q 515 43 346 43 q 801 164 685 43 q 918 458 918 285 q 801 751 918 631 q 515 872 685 872 q 228 751 346 872 q 110 458 110 631 q 228 164 110 285 m 296 739 l 386 738 l 489 738 q 644 699 589 738 q 699 610 699 661 q 660 525 699 558 q 565 476 622 492 q 676 319 617 388 q 782 251 736 251 q 792 238 792 251 q 735 219 792 219 q 644 239 679 219 q 581 301 610 258 q 513 405 553 343 q 465 471 472 467 q 449 472 456 471 l 449 319 q 465 256 449 256 l 510 256 q 515 242 515 256 q 510 228 515 228 l 414 228 l 292 226 q 286 240 286 226 q 292 254 286 254 l 325 254 q 349 261 343 254 q 354 288 354 268 l 354 643 q 340 708 354 708 l 296 708 q 289 724 289 708 q 296 739 289 739 m 483 503 q 572 529 543 503 q 600 599 600 556 q 572 672 600 643 q 479 701 543 701 q 449 672 449 701 l 449 507 q 483 503 472 503 z "},"":{"ha":556,"x_min":90,"x_max":456,"o":"m 389 871 q 440 858 426 871 q 454 828 454 844 q 454 807 454 813 l 142 807 q 106 822 118 807 q 92 850 93 836 l 90 864 l 389 871 z "},"":{"ha":556,"x_min":104,"x_max":451,"o":"m 277 933 q 313 933 277 933 q 400 882 349 933 q 451 759 451 831 q 400 637 451 688 q 277 586 349 586 q 155 637 206 586 q 104 760 104 688 q 155 883 104 832 q 277 933 206 933 m 368 669 q 387 688 368 669 q 406 760 406 707 q 367 850 406 813 q 277 888 329 888 q 188 850 225 888 q 150 760 150 813 q 188 669 150 707 q 278 632 225 632 q 368 669 331 632 z "},"":{"ha":722,"x_min":39,"x_max":690,"o":"m 382 696 q 394 696 388 696 l 394 463 l 553 467 q 618 410 618 467 q 618 400 618 404 l 394 400 l 394 218 q 378 186 394 194 q 344 181 361 178 l 329 185 q 326 400 329 239 l 146 400 q 110 415 122 400 q 96 444 97 431 l 94 460 q 325 463 153 460 l 322 631 q 382 696 322 696 m 689 11 q 689 1 689 7 l 90 1 q 54 17 67 1 q 40 47 42 32 l 39 63 l 624 69 q 689 11 689 69 z "},"":{"ha":499,"x_min":58,"x_max":447,"o":"m 315 817 q 297 872 315 851 q 245 893 279 893 q 190 871 211 893 q 169 814 169 849 q 186 758 169 779 q 140 733 167 733 q 97 749 114 733 q 79 790 79 765 q 134 890 79 847 q 255 933 189 933 q 366 900 321 933 q 411 807 411 867 q 185 547 411 685 l 188 543 q 224 544 199 544 q 404 582 351 544 l 410 619 q 428 628 410 628 q 447 619 447 628 q 436 464 436 538 q 418 456 436 456 q 400 464 400 456 l 400 486 l 68 486 q 58 494 58 486 q 68 510 58 503 q 244 662 172 575 q 315 817 315 749 z "},"":{"ha":436,"x_min":43,"x_max":396,"o":"m 100 518 q 130 453 101 485 q 206 421 158 421 q 286 459 254 421 q 318 547 318 497 q 213 676 318 651 q 169 651 183 665 q 156 626 154 636 l 156 617 q 146 615 151 615 q 122 636 122 615 q 145 676 122 657 q 197 710 168 696 q 248 753 225 724 q 271 822 271 783 q 199 894 271 894 q 149 878 168 894 q 129 840 129 861 q 139 801 129 819 q 100 772 122 772 q 51 817 51 772 q 107 899 51 865 q 216 933 163 933 q 315 907 269 933 q 360 839 360 881 q 249 701 360 764 l 249 700 q 360 647 324 683 q 396 564 396 611 q 339 435 396 486 q 199 383 282 383 q 80 410 117 383 q 43 465 43 438 q 88 519 43 519 q 100 518 96 519 z "},"":{"ha":500,"x_min":122,"x_max":418,"o":"m 140 740 q 122 753 122 740 q 151 790 122 757 q 223 881 181 822 q 281 964 265 939 q 369 1022 315 1022 q 404 1010 390 1022 q 418 978 418 997 q 371 901 418 942 q 154 744 324 861 q 140 740 147 740 z "},"":{"ha":789,"x_min":25,"x_max":772,"o":"m 311 -306 q 243 -343 282 -343 q 188 -321 204 -343 q 163 -265 172 -299 q 147 -181 153 -232 q 138 -84 142 -129 q 134 37 135 -39 q 133 147 133 113 q 132 215 132 181 l 133 418 l 133 443 q 104 565 133 565 l 36 565 q 25 587 25 567 q 33 607 25 607 l 132 606 l 249 610 q 263 599 263 610 q 260 588 263 594 q 257 569 258 581 q 251 461 251 528 l 251 310 q 285 113 251 168 q 413 58 319 58 q 490 81 454 58 q 547 143 526 104 l 547 443 q 518 565 547 565 l 450 565 q 439 587 439 567 q 447 607 439 607 l 546 606 l 663 610 q 676 599 676 610 q 674 588 676 594 q 671 569 672 581 q 665 461 665 528 l 665 203 q 685 92 665 108 q 714 83 694 83 l 761 88 q 772 67 772 88 q 764 46 772 47 q 610 -6 671 31 q 585 -18 590 -18 q 551 83 551 -18 l 549 83 q 456 8 511 33 q 345 -18 400 -18 q 244 3 290 -18 q 311 -306 249 -203 z "},"":{"ha":747,"x_min":53,"x_max":721,"o":"m 535 932 l 710 935 q 721 912 721 935 q 710 889 721 889 l 629 889 q 600 767 600 889 l 600 435 q 563 111 600 207 q 429 -61 518 6 q 228 -128 340 -128 q 173 -112 192 -128 q 154 -78 154 -97 q 215 -1 154 -25 q 349 -37 274 -37 q 415 6 394 -37 q 457 422 457 92 l 457 885 q 404 881 404 883 q 392 443 399 575 q 299 426 346 426 q 115 503 178 426 q 53 688 53 581 q 375 932 53 932 l 535 932 z "},"":{"ha":444,"x_min":133,"x_max":311,"o":"m 223 261 q 205 261 223 261 q 160 288 186 261 q 133 352 133 315 q 159 416 133 389 q 222 443 185 443 q 285 417 258 443 q 311 353 311 390 q 285 289 311 317 q 223 261 260 261 z "},"":{"ha":417,"x_min":92,"x_max":314,"o":"m 194 -69 q 276 -90 239 -69 q 314 -152 314 -110 q 282 -217 314 -194 q 210 -239 250 -239 q 131 -219 171 -239 q 92 -170 92 -200 q 121 -140 92 -140 q 151 -160 143 -140 q 146 -178 146 -167 q 163 -199 146 -189 q 200 -208 179 -208 q 238 -195 221 -208 q 254 -158 254 -182 q 171 -99 254 -99 q 154 -99 165 -99 q 138 -100 143 -100 l 175 0 l 214 0 l 189 -69 q 194 -69 192 -69 z "},"":{"ha":424,"x_min":71,"x_max":347,"o":"m 200 928 l 338 931 q 346 911 346 931 q 339 892 346 892 l 269 892 q 257 876 257 892 l 257 600 q 267 526 257 535 q 278 524 271 524 l 339 524 q 347 504 347 524 q 340 485 347 485 l 210 486 l 82 483 q 75 503 75 483 q 81 522 75 522 l 150 522 q 163 538 163 522 l 163 801 q 140 890 163 890 l 81 890 q 71 910 71 890 q 78 929 71 929 q 200 928 78 929 z "},"":{"ha":500,"x_min":72,"x_max":426,"o":"m 124 896 q 149 922 124 896 q 247 947 175 947 q 371 895 319 947 q 422 771 422 843 q 371 647 422 699 q 247 596 319 596 q 124 647 175 596 q 72 772 72 699 q 124 896 72 844 m 354 764 q 354 794 354 764 q 322 864 354 824 q 244 904 290 904 q 169 865 197 904 q 140 766 140 825 q 172 667 140 707 q 251 628 204 628 q 326 666 297 628 q 354 764 354 704 m 174 543 l 314 538 q 421 551 369 538 q 426 531 426 544 q 391 485 426 499 q 314 472 356 472 l 164 479 q 97 472 117 479 q 88 500 88 489 q 174 543 88 543 z "},"":{"ha":636,"x_min":88,"x_max":571,"o":"m 328 82 q 310 119 310 100 q 331 164 310 139 q 395 231 353 189 q 465 307 438 272 q 395 383 438 342 q 331 450 353 425 q 310 494 310 475 q 328 532 310 514 q 438 420 376 476 q 535 336 499 364 l 571 307 q 328 82 438 207 m 106 82 q 88 119 88 100 q 109 164 88 139 q 173 231 131 189 q 243 307 215 272 q 173 383 215 342 q 109 450 131 425 q 88 494 88 475 q 106 532 88 514 q 215 420 154 476 q 313 336 276 364 l 349 307 q 106 82 215 207 z "},"":{"ha":1060,"x_min":115,"x_max":963,"o":"m 269 -12 q 231 -46 247 -46 q 192 -22 215 -46 l 868 947 q 900 974 886 974 q 944 950 921 974 l 269 -12 m 244 928 l 382 931 q 390 911 390 931 q 383 892 390 892 l 314 892 q 301 876 301 892 l 301 600 q 311 526 301 535 q 322 524 315 524 l 383 524 q 392 504 392 524 q 385 485 392 485 l 254 486 l 126 483 q 119 503 119 483 q 125 522 119 522 l 194 522 q 207 538 207 522 l 207 801 q 185 890 207 890 l 125 890 q 115 910 115 890 q 122 929 115 929 l 244 928 m 843 -89 l 738 -92 q 729 -77 729 -92 q 735 -62 729 -62 l 775 -62 q 790 -39 790 -62 l 790 79 l 578 79 q 567 96 567 79 q 578 125 567 113 l 851 457 q 886 436 886 457 q 883 403 886 432 q 876 186 876 332 l 876 126 l 949 126 q 963 103 963 126 q 949 79 963 79 l 876 79 l 876 -60 l 917 -58 q 925 -74 925 -58 q 919 -89 925 -89 l 843 -89 m 790 125 l 790 250 l 793 318 l 789 318 l 629 125 l 790 125 z "},"":{"ha":1083,"x_min":115,"x_max":1006,"o":"m 269 -12 q 231 -46 247 -46 q 192 -22 215 -46 l 868 947 q 900 974 886 974 q 944 950 921 974 l 269 -12 m 244 928 l 382 931 q 390 911 390 931 q 383 892 390 892 l 314 892 q 301 876 301 892 l 301 600 q 311 526 301 535 q 322 524 315 524 l 383 524 q 392 504 392 524 q 385 485 392 485 l 254 486 l 126 483 q 119 503 119 483 q 125 522 119 522 l 194 522 q 207 538 207 522 l 207 801 q 185 890 207 890 l 125 890 q 115 910 115 890 q 122 929 115 929 l 244 928 m 874 331 q 856 386 874 365 q 803 407 838 407 q 749 385 769 407 q 728 328 728 363 q 744 272 728 293 q 699 247 725 247 q 655 263 672 247 q 638 304 638 279 q 692 404 638 361 q 813 447 747 447 q 924 414 879 447 q 969 321 969 381 q 743 61 969 199 l 746 57 q 782 58 757 58 q 963 96 910 58 l 968 133 q 987 142 968 142 q 1006 133 1006 142 q 994 -22 994 51 q 976 -31 994 -31 q 958 -22 958 -31 l 958 0 l 626 0 q 617 8 617 0 q 626 24 617 17 q 802 176 731 89 q 874 331 874 263 z "},"":{"ha":1060,"x_min":74,"x_max":963,"o":"m 269 -12 q 231 -46 247 -46 q 192 -22 215 -46 l 868 947 q 900 974 886 974 q 944 950 921 974 l 269 -12 m 131 518 q 160 453 132 485 q 237 421 189 421 q 317 459 285 421 q 349 547 349 497 q 243 676 349 651 q 199 651 214 665 q 186 626 185 636 l 186 617 q 176 615 182 615 q 153 636 153 615 q 176 676 153 657 q 227 710 199 696 q 278 753 256 724 q 301 822 301 783 q 229 894 301 894 q 179 878 199 894 q 160 840 160 861 q 169 801 160 819 q 131 772 153 772 q 82 817 82 772 q 138 899 82 865 q 247 933 193 933 q 345 907 300 933 q 390 839 390 881 q 279 701 390 764 l 279 700 q 390 647 354 683 q 426 564 426 611 q 369 435 426 486 q 230 383 313 383 q 110 410 147 383 q 74 465 74 438 q 118 519 74 519 q 131 518 126 519 m 843 -89 l 738 -92 q 729 -77 729 -92 q 735 -62 729 -62 l 775 -62 q 790 -39 790 -62 l 790 79 l 578 79 q 567 96 567 79 q 578 125 567 113 l 851 457 q 886 436 886 457 q 883 403 886 432 q 876 186 876 332 l 876 126 l 949 126 q 963 103 963 126 q 949 79 963 79 l 876 79 l 876 -60 l 917 -58 q 925 -74 925 -58 q 919 -89 925 -89 l 843 -89 m 790 125 l 790 250 l 793 318 l 789 318 l 629 125 l 790 125 z "},"":{"ha":564,"x_min":69,"x_max":501,"o":"m 404 343 l 414 124 q 347 96 414 96 q 206 83 232 96 q 163 56 181 71 q 128 -42 128 28 q 188 -171 128 -111 q 326 -231 249 -231 q 444 -178 378 -231 q 501 -254 501 -196 q 476 -315 501 -289 q 410 -342 451 -342 q 171 -236 272 -342 q 69 11 69 -131 q 135 166 69 110 q 301 222 201 222 q 347 219 317 222 q 350 306 350 261 q 347 368 350 350 q 376 379 360 379 q 404 343 404 379 m 290 551 q 290 568 290 551 q 313 609 290 585 q 369 633 336 633 q 425 610 401 633 q 449 556 449 588 q 427 499 449 524 q 373 475 406 475 q 315 497 340 475 q 290 551 290 518 z "},"":{"ha":910,"x_min":-36,"x_max":928,"o":"m 740 1 l 564 -3 q 551 21 551 -3 q 564 44 551 44 l 643 44 q 672 68 672 44 q 619 234 672 78 q 554 429 567 390 l 303 429 q 204 67 204 115 q 213 46 204 46 l 313 46 q 328 23 328 46 q 310 0 328 0 l 131 1 l -24 -3 q -36 21 -36 -3 q -24 44 -36 44 l 46 44 q 92 75 76 44 q 240 451 150 201 q 362 783 329 701 q 394 873 394 864 q 389 893 394 882 q 383 907 383 904 q 403 918 383 918 q 441 928 424 918 q 464 950 458 938 q 492 981 479 981 q 511 939 497 981 l 790 185 q 864 46 843 46 l 914 46 q 928 23 928 46 q 917 0 928 0 l 740 1 m 429 790 q 321 485 386 679 l 535 485 q 435 790 442 767 l 429 790 m 314 1260 q 328 1292 314 1279 q 372 1304 342 1304 q 422 1284 401 1304 q 490 1190 442 1264 q 574 1078 539 1117 q 610 1035 610 1039 q 597 1022 610 1022 q 578 1026 583 1022 q 361 1183 408 1143 q 314 1260 314 1224 z "},"":{"ha":813,"x_min":-36,"x_max":928,"o":"m 367 1022 q 349 1035 349 1022 q 378 1072 349 1039 q 449 1163 407 1104 q 507 1247 492 1221 q 596 1304 542 1304 q 631 1292 617 1304 q 644 1260 644 1279 q 597 1183 644 1224 q 381 1026 550 1143 q 367 1022 374 1022 m 740 1 l 564 -3 q 551 21 551 -3 q 564 44 551 44 l 643 44 q 672 68 672 44 q 619 234 672 78 q 554 429 567 390 l 303 429 q 204 67 204 115 q 213 46 204 46 l 313 46 q 328 23 328 46 q 310 0 328 0 l 131 1 q -24 -3 131 1 q -36 21 -36 -3 q -24 44 -36 44 l 46 44 q 92 75 76 44 q 240 451 150 201 q 362 783 329 701 q 394 873 394 864 q 389 893 394 882 q 383 907 383 904 q 403 918 383 918 q 441 928 424 918 q 464 950 458 938 q 492 981 479 981 q 511 939 497 981 l 790 185 q 864 46 843 46 l 914 46 q 928 23 928 46 q 917 0 928 0 l 740 1 m 429 790 q 321 485 386 679 l 535 485 q 435 790 442 767 l 429 790 z "},"":{"ha":910,"x_min":-36,"x_max":928,"o":"m 740 1 l 564 -3 q 551 21 551 -3 q 564 44 551 44 l 643 44 q 672 68 672 44 q 619 234 672 78 q 554 429 567 390 l 303 429 q 204 67 204 115 q 213 46 204 46 l 313 46 q 328 23 328 46 q 310 0 328 0 l 131 1 l -24 -3 q -36 21 -36 -3 q -24 44 -36 44 l 46 44 q 92 75 76 44 q 240 451 150 201 q 362 783 329 701 q 394 873 394 864 q 389 893 394 882 q 383 907 383 904 q 403 918 383 918 q 441 928 424 918 q 464 950 458 938 q 492 981 479 981 q 511 939 497 981 l 790 185 q 864 46 843 46 l 914 46 q 928 23 928 46 q 917 0 928 0 l 740 1 m 429 790 q 321 485 386 679 l 535 485 q 435 790 442 767 l 429 790 m 303 1061 q 278 1050 290 1050 q 261 1061 265 1050 l 419 1265 q 456 1285 435 1285 q 496 1265 476 1285 l 649 1061 q 629 1051 642 1051 q 606 1061 617 1051 l 457 1186 l 303 1061 z "},"":{"ha":910,"x_min":-36,"x_max":928,"o":"m 740 1 l 564 -3 q 551 21 551 -3 q 564 44 551 44 l 643 44 q 672 68 672 44 q 619 234 672 78 q 554 429 567 390 l 303 429 q 204 67 204 115 q 213 46 204 46 l 313 46 q 328 23 328 46 q 310 0 328 0 l 131 1 l -24 -3 q -36 21 -36 -3 q -24 44 -36 44 l 46 44 q 92 75 76 44 q 240 451 150 201 q 362 783 329 701 q 394 873 394 864 q 389 893 394 882 q 383 907 383 904 q 403 918 383 918 q 441 928 424 918 q 464 950 458 938 q 492 981 479 981 q 511 939 497 981 l 790 185 q 864 46 843 46 l 914 46 q 928 23 928 46 q 917 0 928 0 l 740 1 m 429 790 q 321 485 386 679 l 535 485 q 435 790 442 767 l 429 790 m 260 1067 q 247 1056 257 1056 q 229 1063 236 1056 q 222 1082 222 1069 q 271 1218 226 1175 q 367 1261 315 1261 q 445 1252 397 1261 q 519 1243 493 1243 q 563 1245 546 1243 q 599 1256 579 1247 q 649 1340 638 1275 q 664 1351 650 1351 q 685 1329 685 1351 q 640 1189 685 1233 q 540 1144 596 1144 q 465 1153 513 1144 q 377 1163 417 1163 q 304 1144 338 1163 q 260 1067 271 1125 z "},"":{"ha":910,"x_min":-36,"x_max":928,"o":"m 740 1 l 564 -3 q 551 21 551 -3 q 564 44 551 44 l 643 44 q 672 68 672 44 q 619 234 672 78 q 554 429 567 390 l 303 429 q 204 67 204 115 q 213 46 204 46 l 313 46 q 328 23 328 46 q 310 0 328 0 l 131 1 l -24 -3 q -36 21 -36 -3 q -24 44 -36 44 l 46 44 q 92 75 76 44 q 240 451 150 201 q 362 783 329 701 q 394 873 394 864 q 389 893 394 882 q 383 907 383 904 q 403 918 383 918 q 441 928 424 918 q 464 950 458 938 q 492 981 479 981 q 511 939 497 981 l 790 185 q 864 46 843 46 l 914 46 q 928 23 928 46 q 917 0 928 0 l 740 1 m 429 790 q 321 485 386 679 l 535 485 q 435 790 442 767 l 429 790 m 390 1117 q 380 1107 390 1117 q 339 1096 369 1096 q 288 1117 308 1096 q 268 1169 268 1139 q 289 1218 268 1199 q 338 1238 310 1238 q 388 1217 367 1238 q 410 1168 410 1197 q 390 1117 410 1139 m 622 1117 q 611 1107 622 1117 q 571 1096 601 1096 q 520 1117 540 1096 q 500 1168 500 1139 q 522 1217 500 1197 q 571 1238 543 1238 q 620 1217 599 1238 q 642 1168 642 1197 q 622 1117 642 1139 z "},"":{"ha":910,"x_min":-36,"x_max":928,"o":"m 740 1 l 564 -3 q 551 21 551 -3 q 564 44 551 44 l 643 44 q 672 68 672 44 q 619 234 672 78 q 554 429 567 390 l 303 429 q 204 67 204 115 q 213 46 204 46 l 313 46 q 328 23 328 46 q 310 0 328 0 l 131 1 l -24 -3 q -36 21 -36 -3 q -24 44 -36 44 l 46 44 q 92 75 76 44 q 240 451 150 201 q 362 783 329 701 q 394 873 394 864 q 389 893 394 882 q 383 907 383 904 q 403 918 383 918 q 441 928 424 918 q 464 950 458 938 q 492 981 479 981 q 511 939 497 981 l 790 185 q 864 46 843 46 l 914 46 q 928 23 928 46 q 917 0 928 0 l 740 1 m 429 790 q 321 485 386 679 l 535 485 q 435 790 442 767 l 429 790 m 599 1181 q 599 1155 599 1181 q 561 1091 599 1128 q 469 1054 524 1054 q 377 1092 415 1054 q 339 1181 339 1129 q 377 1269 339 1232 q 467 1306 415 1306 q 559 1270 519 1306 q 599 1181 599 1235 m 386 1180 q 386 1162 386 1180 q 411 1119 386 1144 q 470 1094 436 1094 q 528 1120 504 1094 q 551 1181 551 1146 q 527 1241 551 1215 q 467 1267 503 1267 q 409 1241 432 1267 q 386 1180 386 1215 z "},"":{"ha":1224,"x_min":-49,"x_max":1164,"o":"m 601 489 q 319 496 528 489 l 319 442 l 601 444 l 601 489 m 101 1 l -36 -3 q -49 21 -49 -3 q -36 44 -49 44 l 17 44 q 153 194 61 44 q 374 596 246 344 q 533 903 501 847 l 581 861 q 321 381 464 665 q 178 54 178 97 q 183 46 178 46 l 257 46 q 272 23 272 46 q 254 0 272 0 l 101 1 m 460 935 l 635 932 l 1038 932 l 1038 961 q 1058 974 1038 974 q 1078 961 1078 974 q 1092 750 1078 822 q 1072 739 1094 739 q 1047 750 1050 739 q 994 851 1025 838 q 758 881 921 879 q 722 865 731 879 q 713 817 713 851 l 713 489 q 881 497 799 490 q 969 508 963 504 l 983 590 q 1000 600 985 600 q 1026 588 1029 600 q 1019 465 1019 533 q 1026 343 1019 397 q 1006 332 1029 332 q 983 340 983 332 l 968 424 q 880 435 960 428 q 713 444 800 443 l 713 178 q 711 142 711 158 q 742 56 711 56 l 813 56 q 1107 114 1028 58 l 1117 190 q 1141 201 1119 201 q 1163 193 1163 201 l 1150 -31 q 1128 -40 1150 -40 q 1107 -31 1107 -40 l 1107 0 l 764 0 l 457 -3 q 446 21 446 -3 q 457 44 446 44 l 513 44 q 558 58 547 44 q 569 108 569 71 l 569 850 l 540 889 l 460 889 q 449 912 449 889 q 460 935 449 935 z "},"":{"ha":1010,"x_min":64,"x_max":942,"o":"m 894 193 q 919 208 897 208 q 940 196 940 208 l 929 3 q 908 -8 929 -8 q 886 3 886 -8 l 886 36 q 619 -18 750 -18 q 511 -11 569 -18 l 490 -69 q 496 -69 493 -69 q 578 -90 540 -69 q 615 -152 615 -110 q 583 -217 615 -194 q 512 -239 551 -239 q 433 -219 472 -239 q 393 -170 393 -200 q 422 -140 393 -140 q 453 -160 444 -140 q 447 -178 447 -167 q 464 -199 447 -189 q 502 -208 481 -208 q 540 -195 524 -208 q 556 -158 556 -182 q 472 -99 556 -99 q 456 -99 467 -99 q 439 -100 444 -100 l 474 -6 q 176 142 289 28 q 64 426 64 257 q 147 715 64 594 q 358 892 231 835 q 620 950 486 950 q 860 896 754 950 l 860 928 q 880 940 860 940 q 900 928 900 940 q 914 722 900 815 q 893 708 917 708 q 868 722 869 708 l 857 788 q 598 888 749 888 q 342 777 447 888 q 236 465 236 667 q 348 153 236 263 q 628 44 460 44 q 886 128 764 44 l 894 193 z "},"":{"ha":853,"x_min":71,"x_max":793,"o":"m 89 935 l 264 932 l 667 932 l 667 961 q 687 974 667 974 q 707 961 707 974 q 721 750 707 822 q 701 739 724 739 q 676 750 679 739 q 624 851 654 838 q 388 881 550 879 q 351 865 360 879 q 342 817 342 851 l 342 489 q 510 497 428 490 q 599 508 592 504 l 613 590 q 629 600 614 600 q 656 588 658 600 q 649 465 649 533 q 656 343 649 397 q 635 332 658 332 q 613 340 613 332 l 597 424 q 509 435 589 428 q 342 444 429 443 l 342 178 q 371 56 342 56 l 442 56 q 736 114 657 58 l 746 190 q 770 201 749 201 q 792 193 792 201 l 779 -31 q 758 -40 779 -40 q 736 -31 736 -40 l 736 0 l 393 0 l 82 -3 q 71 21 71 -3 q 82 44 71 44 l 142 44 q 188 58 176 44 q 199 108 199 71 l 199 767 q 169 889 199 889 l 89 889 q 78 912 78 889 q 89 935 78 935 m 300 1260 q 314 1292 300 1279 q 358 1304 328 1304 q 408 1284 388 1304 q 476 1190 428 1264 q 560 1078 525 1117 q 596 1035 596 1039 q 583 1022 596 1022 q 564 1026 569 1022 q 347 1183 394 1143 q 300 1260 300 1224 z "},"":{"ha":853,"x_min":71,"x_max":793,"o":"m 401 1022 q 383 1035 383 1022 q 413 1072 383 1039 q 484 1163 442 1104 q 542 1247 526 1221 q 631 1304 576 1304 q 665 1292 651 1304 q 679 1260 679 1279 q 632 1183 679 1224 q 415 1026 585 1143 q 401 1022 408 1022 m 89 935 l 264 932 l 667 932 l 667 961 q 687 974 667 974 q 707 961 707 974 q 721 750 707 822 q 701 739 724 739 q 676 750 679 739 q 624 851 654 838 q 388 881 550 879 q 351 865 360 879 q 342 817 342 851 l 342 489 q 510 497 428 490 q 599 508 592 504 l 613 590 q 629 600 614 600 q 656 588 658 600 q 649 465 649 533 q 656 343 649 397 q 635 332 658 332 q 613 340 613 332 l 597 424 q 509 435 589 428 q 342 444 429 443 l 342 178 q 371 56 342 56 l 442 56 q 736 114 657 58 l 746 190 q 770 201 749 201 q 792 193 792 201 l 779 -31 q 758 -40 779 -40 q 736 -31 736 -40 l 736 0 l 393 0 l 82 -3 q 71 21 71 -3 q 82 44 71 44 l 142 44 q 188 58 176 44 q 199 108 199 71 l 199 767 q 169 889 199 889 l 89 889 q 78 912 78 889 q 89 935 78 935 z "},"":{"ha":853,"x_min":71,"x_max":793,"o":"m 89 935 l 264 932 l 667 932 l 667 961 q 687 974 667 974 q 707 961 707 974 q 721 750 707 822 q 701 739 724 739 q 676 750 679 739 q 624 851 654 838 q 388 881 550 879 q 351 865 360 879 q 342 817 342 851 l 342 489 q 510 497 428 490 q 599 508 592 504 l 613 590 q 629 600 614 600 q 656 588 658 600 q 649 465 649 533 q 656 343 649 397 q 635 332 658 332 q 613 340 613 332 l 597 424 q 509 435 589 428 q 342 444 429 443 l 342 178 q 371 56 342 56 l 442 56 q 736 114 657 58 l 746 190 q 770 201 749 201 q 792 193 792 201 l 779 -31 q 758 -40 779 -40 q 736 -31 736 -40 l 736 0 l 393 0 l 82 -3 q 71 21 71 -3 q 82 44 71 44 l 142 44 q 188 58 176 44 q 199 108 199 71 l 199 767 q 169 889 199 889 l 89 889 q 78 912 78 889 q 89 935 78 935 m 274 1061 q 249 1050 261 1050 q 232 1061 236 1050 l 390 1265 q 426 1285 406 1285 q 467 1265 447 1285 l 619 1061 q 600 1051 613 1051 q 576 1061 588 1051 l 428 1186 l 274 1061 z "},"":{"ha":853,"x_min":71,"x_max":793,"o":"m 89 935 l 264 932 l 667 932 l 667 961 q 687 974 667 974 q 707 961 707 974 q 721 750 707 822 q 701 739 724 739 q 676 750 679 739 q 624 851 654 838 q 388 881 550 879 q 351 865 360 879 q 342 817 342 851 l 342 489 q 510 497 428 490 q 599 508 592 504 l 613 590 q 629 600 614 600 q 656 588 658 600 q 649 465 649 533 q 656 343 649 397 q 635 332 658 332 q 613 340 613 332 l 597 424 q 509 435 589 428 q 342 444 429 443 l 342 178 q 371 56 342 56 l 442 56 q 736 114 657 58 l 746 190 q 770 201 749 201 q 792 193 792 201 l 779 -31 q 758 -40 779 -40 q 736 -31 736 -40 l 736 0 l 393 0 l 82 -3 q 71 21 71 -3 q 82 44 71 44 l 142 44 q 188 58 176 44 q 199 108 199 71 l 199 767 q 169 889 199 889 l 89 889 q 78 912 78 889 q 89 935 78 935 m 360 1117 q 350 1107 360 1117 q 310 1096 340 1096 q 259 1117 279 1096 q 239 1169 239 1139 q 260 1218 239 1199 q 309 1238 281 1238 q 359 1217 338 1238 q 381 1168 381 1197 q 360 1117 381 1139 m 592 1117 q 582 1107 592 1117 q 542 1096 572 1096 q 491 1117 511 1096 q 471 1168 471 1139 q 492 1217 471 1197 q 542 1238 514 1238 q 591 1217 569 1238 q 613 1168 613 1197 q 592 1117 613 1139 z "},"":{"ha":533,"x_min":71,"x_max":469,"o":"m 264 933 l 458 938 q 469 914 469 938 q 458 890 469 890 l 399 890 q 353 877 364 890 q 342 826 342 864 l 342 168 q 371 46 342 46 l 451 46 q 463 23 463 46 q 451 0 463 0 l 276 1 l 82 -3 q 71 21 71 -3 q 82 44 71 44 l 142 44 q 188 58 176 44 q 199 108 199 71 l 199 767 q 169 889 199 889 l 89 889 q 78 912 78 889 q 89 935 78 935 l 264 933 m 119 1260 q 133 1292 119 1279 q 177 1304 147 1304 q 227 1284 207 1304 q 296 1190 247 1264 q 380 1078 344 1117 q 415 1035 415 1039 q 402 1022 415 1022 q 383 1026 389 1022 q 167 1183 214 1143 q 119 1260 119 1224 z "},"":{"ha":544,"x_min":71,"x_max":475,"o":"m 211 1026 q 192 1022 206 1022 q 179 1035 179 1022 q 208 1072 179 1039 q 280 1163 238 1104 q 338 1247 322 1221 q 426 1304 372 1304 q 461 1292 447 1304 q 475 1260 475 1279 q 428 1183 475 1224 q 211 1026 381 1143 m 264 933 l 458 938 q 469 914 469 938 q 458 890 469 890 l 399 890 q 353 877 364 890 q 342 826 342 864 l 342 168 q 371 46 342 46 l 451 46 q 463 23 463 46 q 451 0 463 0 l 276 1 l 82 -3 q 71 21 71 -3 q 82 44 71 44 l 142 44 q 188 58 176 44 q 199 108 199 71 l 199 767 q 169 889 199 889 l 89 889 q 78 912 78 889 q 89 935 78 935 l 264 933 z "},"":{"ha":533,"x_min":71,"x_max":469,"o":"m 264 933 l 458 938 q 469 914 469 938 q 458 890 469 890 l 399 890 q 353 877 364 890 q 342 826 342 864 l 342 168 q 371 46 342 46 l 451 46 q 463 23 463 46 q 451 0 463 0 l 276 1 l 82 -3 q 71 21 71 -3 q 82 44 71 44 l 142 44 q 188 58 176 44 q 199 108 199 71 l 199 767 q 169 889 199 889 l 89 889 q 78 912 78 889 q 89 935 78 935 l 264 933 m 115 1061 q 90 1050 103 1050 q 74 1061 78 1050 l 232 1265 q 268 1285 247 1285 q 308 1265 289 1285 l 461 1061 q 442 1051 454 1051 q 418 1061 429 1051 l 269 1186 l 115 1061 z "},"":{"ha":533,"x_min":71,"x_max":469,"o":"m 264 933 l 458 938 q 469 914 469 938 q 458 890 469 890 l 399 890 q 353 877 364 890 q 342 826 342 864 l 342 168 q 371 46 342 46 l 451 46 q 463 23 463 46 q 451 0 463 0 l 276 1 l 82 -3 q 71 21 71 -3 q 82 44 71 44 l 142 44 q 188 58 176 44 q 199 108 199 71 l 199 767 q 169 889 199 889 l 89 889 q 78 912 78 889 q 89 935 78 935 l 264 933 m 202 1117 q 192 1107 202 1117 q 151 1096 182 1096 q 101 1117 121 1096 q 81 1169 81 1139 q 101 1218 81 1199 q 151 1238 122 1238 q 201 1217 179 1238 q 222 1168 222 1197 q 202 1117 222 1139 m 434 1117 q 424 1107 434 1117 q 383 1096 414 1096 q 333 1117 353 1096 q 313 1168 313 1139 q 334 1217 313 1197 q 383 1238 356 1238 q 433 1217 411 1238 q 454 1168 454 1197 q 434 1117 454 1139 z "},"":{"ha":1083,"x_min":69,"x_max":1019,"o":"m 82 935 l 265 932 l 454 932 q 866 803 713 932 q 1019 464 1019 675 q 867 126 1019 253 q 481 0 714 0 l 318 0 l 82 -3 q 71 21 71 -3 q 82 44 71 44 l 142 44 q 188 58 176 44 q 199 108 199 71 l 199 465 l 146 465 q 110 481 122 465 q 96 511 97 496 l 94 526 l 199 526 l 199 769 q 169 888 199 888 l 82 888 q 69 911 69 888 q 82 935 69 935 m 390 876 q 342 819 342 876 l 342 528 l 521 532 q 586 474 586 532 q 586 464 586 469 l 342 464 l 342 178 q 371 56 342 56 l 485 57 q 759 160 657 60 q 861 444 861 261 q 749 744 861 626 q 394 876 636 861 q 390 876 392 876 z "},"":{"ha":1139,"x_min":43,"x_max":1099,"o":"m 386 1074 q 374 1063 383 1063 q 356 1070 364 1063 q 349 1089 349 1078 q 392 1219 353 1182 q 472 1257 431 1257 q 560 1248 513 1257 q 635 1239 608 1239 q 676 1240 663 1239 q 708 1250 690 1242 q 756 1332 744 1265 q 769 1343 757 1343 q 787 1336 781 1343 q 792 1318 793 1329 q 656 1151 785 1151 q 580 1160 628 1151 q 494 1169 532 1169 q 426 1151 456 1169 q 386 1074 397 1132 m 922 932 l 1086 936 q 1099 913 1099 936 q 1086 890 1099 890 l 1021 890 q 985 878 993 890 q 950 -17 953 831 q 928 -26 947 -26 q 899 -17 908 -26 q 260 749 493 465 l 254 749 q 263 144 260 243 q 292 46 265 46 l 368 46 q 381 23 381 46 q 368 0 381 0 l 221 1 l 56 -3 q 46 21 46 -3 q 56 44 46 44 l 101 44 q 147 52 133 44 q 163 82 161 60 q 190 829 190 394 l 181 840 q 131 881 153 872 q 51 890 110 890 q 43 913 43 890 q 51 935 43 935 q 303 932 51 935 q 878 204 797 313 l 883 204 q 869 822 875 756 q 838 889 864 889 l 771 889 q 758 912 758 889 q 771 935 758 935 l 922 932 z "},"":{"ha":1144,"x_min":67,"x_max":1078,"o":"m 215 808 q 290 879 215 808 q 572 950 364 950 q 929 808 781 950 q 1078 466 1078 667 q 929 124 1078 265 q 572 -18 781 -18 q 215 124 364 -18 q 67 466 67 265 q 215 808 67 667 m 810 765 q 764 826 810 765 q 572 886 718 886 q 334 765 426 886 q 242 466 242 644 q 334 167 242 288 q 572 46 426 46 q 810 167 718 46 q 903 466 903 288 q 810 765 903 644 m 439 1260 q 453 1292 439 1279 q 497 1304 467 1304 q 547 1284 526 1304 q 615 1190 567 1264 q 699 1078 664 1117 q 735 1035 735 1039 q 722 1022 735 1022 q 703 1026 708 1022 q 486 1183 533 1143 q 439 1260 439 1224 z "},"":{"ha":1144,"x_min":67,"x_max":1078,"o":"m 535 1022 q 517 1035 517 1022 q 546 1072 517 1039 q 617 1163 575 1104 q 675 1247 660 1221 q 764 1304 710 1304 q 799 1292 785 1304 q 813 1260 813 1279 q 765 1183 813 1224 q 549 1026 718 1143 q 535 1022 542 1022 m 215 808 q 290 879 215 808 q 572 950 364 950 q 929 808 781 950 q 1078 466 1078 667 q 929 124 1078 265 q 572 -18 781 -18 q 215 124 364 -18 q 67 466 67 265 q 215 808 67 667 m 810 765 q 764 826 810 765 q 572 886 718 886 q 334 765 426 886 q 242 466 242 644 q 334 167 242 288 q 572 46 426 46 q 810 167 718 46 q 903 466 903 288 q 810 765 903 644 z "},"":{"ha":1144,"x_min":67,"x_max":1078,"o":"m 215 808 q 290 879 215 808 q 572 950 364 950 q 929 808 781 950 q 1078 466 1078 667 q 929 124 1078 265 q 572 -18 781 -18 q 215 124 364 -18 q 67 466 67 265 q 215 808 67 667 m 810 765 q 764 826 810 765 q 572 886 718 886 q 334 765 426 886 q 242 466 242 644 q 334 167 242 288 q 572 46 426 46 q 810 167 718 46 q 903 466 903 288 q 810 765 903 644 m 447 1061 q 422 1050 435 1050 q 406 1061 410 1050 l 564 1265 q 600 1285 579 1285 q 640 1265 621 1285 l 793 1061 q 774 1051 786 1051 q 750 1061 761 1051 l 601 1186 l 447 1061 z "},"":{"ha":1144,"x_min":67,"x_max":1078,"o":"m 215 808 q 290 879 215 808 q 572 950 364 950 q 929 808 781 950 q 1078 466 1078 667 q 929 124 1078 265 q 572 -18 781 -18 q 215 124 364 -18 q 67 466 67 265 q 215 808 67 667 m 810 765 q 764 826 810 765 q 572 886 718 886 q 334 765 426 886 q 242 466 242 644 q 334 167 242 288 q 572 46 426 46 q 810 167 718 46 q 903 466 903 288 q 810 765 903 644 m 378 1074 q 365 1063 375 1063 q 348 1070 356 1063 q 340 1089 340 1078 q 389 1225 344 1182 q 485 1268 433 1268 q 563 1259 515 1268 q 638 1250 611 1250 q 681 1252 664 1250 q 717 1264 697 1254 q 767 1347 756 1282 q 781 1358 768 1358 q 803 1338 803 1358 q 758 1196 803 1240 q 658 1151 714 1151 q 583 1160 631 1151 q 495 1169 535 1169 q 422 1151 456 1169 q 378 1074 389 1132 z "},"":{"ha":1144,"x_min":67,"x_max":1078,"o":"m 215 808 q 290 879 215 808 q 572 950 364 950 q 929 808 781 950 q 1078 466 1078 667 q 929 124 1078 265 q 572 -18 781 -18 q 215 124 364 -18 q 67 466 67 265 q 215 808 67 667 m 810 765 q 764 826 810 765 q 572 886 718 886 q 334 765 426 886 q 242 466 242 644 q 334 167 242 288 q 572 46 426 46 q 810 167 718 46 q 903 466 903 288 q 810 765 903 644 m 506 1117 q 496 1107 506 1117 q 456 1096 486 1096 q 405 1117 425 1096 q 385 1169 385 1139 q 406 1218 385 1199 q 455 1238 426 1238 q 505 1217 483 1238 q 526 1168 526 1197 q 506 1117 526 1139 m 738 1117 q 728 1107 738 1117 q 688 1096 718 1096 q 637 1117 657 1096 q 617 1168 617 1139 q 638 1217 617 1197 q 688 1238 660 1238 q 737 1217 715 1238 q 758 1168 758 1197 q 738 1117 758 1139 z "},"":{"ha":722,"x_min":63,"x_max":660,"o":"m 650 113 q 611 78 626 78 q 572 99 596 78 l 361 313 l 150 99 q 117 78 126 78 q 106 78 108 78 q 72 113 93 81 l 317 356 l 63 608 q 101 644 76 644 q 136 626 118 644 l 361 399 l 586 626 q 614 644 604 644 q 630 642 624 644 q 644 632 636 640 q 660 608 653 624 l 404 356 l 650 113 z "},"":{"ha":1144,"x_min":67,"x_max":1078,"o":"m 1078 467 q 929 124 1078 265 q 572 -18 781 -18 q 410 7 486 -18 l 322 -157 q 287 -190 306 -190 q 244 -167 268 -190 l 350 31 q 144 208 222 92 q 67 467 67 325 q 215 808 67 667 q 572 950 364 950 q 813 890 700 950 l 892 1036 q 921 1064 907 1064 q 967 1040 946 1064 l 868 857 q 1022 688 965 790 q 1078 467 1078 585 m 572 886 q 334 765 426 886 q 242 467 242 644 q 281 258 242 353 q 392 108 321 164 l 769 808 q 572 886 683 886 m 572 46 q 810 167 718 46 q 903 464 903 288 q 815 758 903 640 l 446 74 q 572 46 506 46 z "},"":{"ha":1086,"x_min":63,"x_max":1038,"o":"m 876 933 l 1026 938 q 1038 914 1038 938 q 1026 890 1038 890 l 985 890 q 940 877 950 890 q 926 826 929 864 q 914 354 914 639 q 806 81 914 179 q 548 -18 697 -18 q 291 74 399 -18 q 183 335 183 167 l 183 767 q 154 889 183 889 l 74 889 q 63 912 63 889 q 74 935 63 935 l 249 933 l 443 938 q 454 914 454 938 q 443 890 454 890 l 383 890 q 338 877 349 890 q 326 826 326 864 l 326 374 q 399 152 326 226 q 586 78 472 78 q 767 160 700 78 q 835 403 835 243 q 829 756 835 624 q 797 889 824 889 l 719 889 q 708 912 708 889 q 719 935 708 935 l 876 933 m 397 1260 q 411 1292 397 1279 q 455 1304 425 1304 q 505 1284 485 1304 q 574 1190 525 1264 q 658 1078 622 1117 q 693 1035 693 1039 q 680 1022 693 1022 q 661 1026 667 1022 q 444 1183 492 1143 q 397 1260 397 1224 z "},"":{"ha":1086,"x_min":63,"x_max":1038,"o":"m 529 1022 q 511 1035 511 1022 q 540 1072 511 1039 q 612 1163 569 1104 q 669 1247 654 1221 q 758 1304 704 1304 q 793 1292 779 1304 q 807 1260 807 1279 q 760 1183 807 1224 q 543 1026 713 1143 q 529 1022 536 1022 m 876 933 l 1026 938 q 1038 914 1038 938 q 1026 890 1038 890 l 985 890 q 940 877 950 890 q 926 826 929 864 q 914 354 914 639 q 806 81 914 179 q 548 -18 697 -18 q 291 74 399 -18 q 183 335 183 167 l 183 767 q 154 889 183 889 l 74 889 q 63 912 63 889 q 74 935 63 935 l 249 933 l 443 938 q 454 914 454 938 q 443 890 454 890 l 383 890 q 338 877 349 890 q 326 826 326 864 l 326 374 q 399 152 326 226 q 586 78 472 78 q 767 160 700 78 q 835 403 835 243 q 829 756 835 624 q 797 889 824 889 l 719 889 q 708 912 708 889 q 719 935 708 935 l 876 933 z "},"":{"ha":1086,"x_min":63,"x_max":1038,"o":"m 876 933 l 1026 938 q 1038 914 1038 938 q 1026 890 1038 890 l 985 890 q 940 877 950 890 q 926 826 929 864 q 914 354 914 639 q 806 81 914 179 q 548 -18 697 -18 q 291 74 399 -18 q 183 335 183 167 l 183 767 q 154 889 183 889 l 74 889 q 63 912 63 889 q 74 935 63 935 l 249 933 l 443 938 q 454 914 454 938 q 443 890 454 890 l 383 890 q 338 877 349 890 q 326 826 326 864 l 326 374 q 399 152 326 226 q 586 78 472 78 q 767 160 700 78 q 835 403 835 243 q 829 756 835 624 q 797 889 824 889 l 719 889 q 708 912 708 889 q 719 935 708 935 l 876 933 m 446 1061 q 421 1050 433 1050 q 404 1061 408 1050 l 563 1265 q 599 1285 578 1285 q 639 1265 619 1285 l 792 1061 q 772 1051 785 1051 q 749 1061 760 1051 l 600 1186 l 446 1061 z "},"":{"ha":1086,"x_min":63,"x_max":1038,"o":"m 876 933 l 1026 938 q 1038 914 1038 938 q 1026 890 1038 890 l 985 890 q 940 877 950 890 q 926 826 929 864 q 914 354 914 639 q 806 81 914 179 q 548 -18 697 -18 q 291 74 399 -18 q 183 335 183 167 l 183 767 q 154 889 183 889 l 74 889 q 63 912 63 889 q 74 935 63 935 l 249 933 l 443 938 q 454 914 454 938 q 443 890 454 890 l 383 890 q 338 877 349 890 q 326 826 326 864 l 326 374 q 399 152 326 226 q 586 78 472 78 q 767 160 700 78 q 835 403 835 243 q 829 756 835 624 q 797 889 824 889 l 719 889 q 708 912 708 889 q 719 935 708 935 l 876 933 m 533 1117 q 523 1107 533 1117 q 482 1096 513 1096 q 431 1117 451 1096 q 411 1169 411 1139 q 432 1218 411 1199 q 481 1238 453 1238 q 531 1217 510 1238 q 553 1168 553 1197 q 533 1117 553 1139 m 765 1117 q 755 1107 765 1117 q 714 1096 744 1096 q 663 1117 683 1096 q 643 1168 643 1139 q 665 1217 643 1197 q 714 1238 686 1238 q 763 1217 742 1238 q 785 1168 785 1197 q 765 1117 785 1139 z "},"":{"ha":842,"x_min":-94,"x_max":960,"o":"m 442 1026 q 423 1022 436 1022 q 410 1035 410 1022 q 439 1072 410 1039 q 510 1163 468 1104 q 568 1247 553 1221 q 657 1304 603 1304 q 692 1292 678 1304 q 706 1260 706 1279 q 658 1183 706 1224 q 442 1026 611 1143 m 431 1 l 239 -3 q 228 21 228 -3 q 239 44 228 44 l 299 44 q 344 58 333 44 q 356 108 356 71 l 356 419 q 76 801 357 476 q 6 873 31 856 q -40 890 -19 890 l -85 890 q -94 913 -94 890 q -85 935 -94 935 l 88 932 l 283 935 q 296 912 296 935 q 283 889 296 889 l 186 889 q 236 824 186 883 q 450 526 397 635 l 454 526 q 578 695 483 576 q 685 838 674 814 q 697 874 697 861 q 682 890 697 890 l 628 890 q 615 913 615 890 q 628 935 615 935 l 792 932 l 946 935 q 960 912 960 935 q 946 889 960 889 l 911 889 q 851 867 876 889 q 622 638 750 782 q 493 446 493 493 l 493 146 q 522 46 493 46 l 603 46 q 614 23 614 46 q 603 0 614 0 l 431 1 z "},"":{"ha":810,"x_min":71,"x_max":772,"o":"m 264 933 l 461 938 q 472 914 472 938 q 461 890 472 890 l 419 890 q 374 878 385 890 q 361 831 364 867 q 356 744 358 794 l 424 744 q 685 674 597 744 q 772 502 772 604 q 692 319 772 400 q 490 239 613 239 q 336 272 410 239 l 336 168 q 365 46 336 46 l 446 46 q 457 23 457 46 q 446 0 457 0 l 276 1 l 82 -3 q 71 21 71 -3 q 82 44 71 44 l 142 44 q 188 58 176 44 q 199 108 199 71 l 199 767 q 169 889 199 889 l 89 889 q 78 912 78 889 q 89 935 78 935 l 264 933 m 415 308 q 567 362 511 308 q 622 493 622 415 q 563 630 622 571 q 392 689 503 689 q 350 663 350 689 q 336 317 340 486 q 415 308 372 308 z "},"":{"ha":757,"x_min":38,"x_max":711,"o":"m 178 1 l 56 -3 q 46 18 46 -3 q 53 39 46 39 l 133 39 q 150 63 150 39 l 150 554 l 53 554 q 38 577 38 554 q 50 600 38 600 q 147 629 138 600 q 166 701 154 650 q 188 787 178 753 q 219 866 197 821 q 267 939 240 911 q 339 987 293 967 q 448 1007 385 1007 q 551 972 511 1007 q 590 890 590 938 q 568 804 590 842 q 519 740 546 767 q 469 677 492 714 q 447 595 447 640 q 474 507 447 550 q 540 433 501 464 q 618 370 579 401 q 684 292 657 339 q 711 188 711 246 q 647 44 711 103 q 510 -14 583 -14 q 401 19 438 -14 q 364 115 364 53 q 386 131 364 129 q 400 124 399 131 q 496 46 400 46 q 574 76 542 46 q 606 156 606 107 q 583 244 606 204 q 528 312 560 283 q 464 371 496 340 q 386 565 386 446 q 436 728 386 638 q 486 851 486 819 q 411 947 486 947 q 311 892 342 947 q 275 785 281 838 q 268 647 268 718 l 268 164 q 271 61 268 99 q 274 12 274 24 q 267 0 274 0 l 178 1 z "},"":{"ha":654,"x_min":60,"x_max":644,"o":"m 521 450 q 507 171 521 450 q 568 78 507 78 q 610 92 593 78 q 631 107 628 107 q 644 93 644 107 q 603 21 644 57 q 513 -15 563 -15 q 437 26 463 -15 q 411 126 411 67 q 411 139 411 132 l 407 139 q 322 26 382 71 q 197 -18 263 -18 q 97 9 131 -18 q 63 86 63 36 q 153 235 63 165 q 404 351 243 304 q 407 407 407 399 q 378 531 407 482 q 293 579 350 579 q 201 547 236 579 q 165 453 165 514 q 167 422 165 433 q 129 408 157 408 q 81 425 101 408 q 60 474 60 442 q 139 581 60 536 q 306 625 218 625 q 521 450 521 625 m 253 58 q 354 126 310 58 q 404 311 399 194 q 239 222 286 268 q 192 124 192 176 q 253 58 192 58 m 179 979 q 193 1011 179 999 q 237 1024 207 1024 q 287 1003 267 1024 q 356 910 307 983 q 440 797 404 836 q 475 754 475 758 q 457 742 475 742 q 443 746 450 742 q 226 903 274 863 q 179 979 179 943 z "},"":{"ha":654,"x_min":60,"x_max":644,"o":"m 521 450 q 507 171 521 450 q 568 78 507 78 q 610 92 593 78 q 631 107 628 107 q 644 93 644 107 q 603 21 644 57 q 513 -15 563 -15 q 437 26 463 -15 q 411 126 411 67 q 411 139 411 132 l 407 139 q 322 26 382 71 q 197 -18 263 -18 q 97 9 131 -18 q 63 86 63 36 q 153 235 63 165 q 404 351 243 304 q 407 407 407 399 q 378 531 407 482 q 293 579 350 579 q 201 547 236 579 q 165 453 165 514 q 167 422 165 433 q 129 408 157 408 q 81 425 101 408 q 60 474 60 442 q 139 581 60 536 q 306 625 218 625 q 521 450 521 625 m 253 58 q 354 126 310 58 q 404 311 399 194 q 239 222 286 268 q 192 124 192 176 q 253 58 192 58 m 226 740 q 208 753 208 740 q 238 790 208 757 q 309 881 267 822 q 367 964 351 939 q 456 1022 401 1022 q 490 1010 476 1022 q 504 978 504 997 q 457 901 504 942 q 240 744 410 861 q 226 740 233 740 z "},"":{"ha":654,"x_min":60,"x_max":644,"o":"m 521 450 q 507 171 521 450 q 568 78 507 78 q 610 92 593 78 q 631 107 628 107 q 644 93 644 107 q 603 21 644 57 q 513 -15 563 -15 q 437 26 463 -15 q 411 126 411 67 q 411 139 411 132 l 407 139 q 322 26 382 71 q 197 -18 263 -18 q 97 9 131 -18 q 63 86 63 36 q 153 235 63 165 q 404 351 243 304 q 407 407 407 399 q 378 531 407 482 q 293 579 350 579 q 201 547 236 579 q 165 453 165 514 q 167 422 165 433 q 129 408 157 408 q 81 425 101 408 q 60 474 60 442 q 139 581 60 536 q 306 625 218 625 q 521 450 521 625 m 253 58 q 354 126 310 58 q 404 311 399 194 q 239 222 286 268 q 192 124 192 176 q 253 58 192 58 m 175 736 q 150 725 163 725 q 133 736 138 725 l 292 940 q 328 960 307 960 q 368 940 349 960 l 521 736 q 501 726 514 726 q 478 736 489 726 l 329 861 l 175 736 z "},"":{"ha":654,"x_min":60,"x_max":644,"o":"m 521 450 q 507 171 521 450 q 568 78 507 78 q 610 92 593 78 q 631 107 628 107 q 644 93 644 107 q 603 21 644 57 q 513 -15 563 -15 q 437 26 463 -15 q 411 126 411 67 q 411 139 411 132 l 407 139 q 322 26 382 71 q 197 -18 263 -18 q 97 9 131 -18 q 63 86 63 36 q 153 235 63 165 q 404 351 243 304 q 407 407 407 399 q 378 531 407 482 q 293 579 350 579 q 201 547 236 579 q 165 453 165 514 q 167 422 165 433 q 129 408 157 408 q 81 425 101 408 q 60 474 60 442 q 139 581 60 536 q 306 625 218 625 q 521 450 521 625 m 253 58 q 354 126 310 58 q 404 311 399 194 q 239 222 286 268 q 192 124 192 176 q 253 58 192 58 m 132 742 q 119 731 129 731 q 101 738 108 731 q 94 757 94 744 q 143 893 99 850 q 239 936 188 936 q 317 927 269 936 q 392 918 365 918 q 435 920 418 918 q 471 931 451 922 q 521 1015 510 950 q 536 1026 522 1026 q 557 1004 557 1026 q 513 864 557 908 q 413 819 468 819 q 337 828 385 819 q 249 838 289 838 q 176 819 210 838 q 132 742 143 800 z "},"":{"ha":654,"x_min":60,"x_max":644,"o":"m 521 450 q 507 171 521 450 q 568 78 507 78 q 610 92 593 78 q 631 107 628 107 q 644 93 644 107 q 603 21 644 57 q 513 -15 563 -15 q 437 26 463 -15 q 411 126 411 67 q 411 139 411 132 l 407 139 q 322 26 382 71 q 197 -18 263 -18 q 97 9 131 -18 q 63 86 63 36 q 153 235 63 165 q 404 351 243 304 q 407 407 407 399 q 378 531 407 482 q 293 579 350 579 q 201 547 236 579 q 165 453 165 514 q 167 422 165 433 q 129 408 157 408 q 81 425 101 408 q 60 474 60 442 q 139 581 60 536 q 306 625 218 625 q 521 450 521 625 m 253 58 q 354 126 310 58 q 404 311 399 194 q 239 222 286 268 q 192 124 192 176 q 253 58 192 58 m 262 792 q 252 782 262 792 q 211 771 242 771 q 160 792 181 771 q 140 844 140 814 q 161 893 140 874 q 210 913 182 913 q 260 892 239 913 q 282 843 282 872 q 262 792 282 814 m 494 792 q 484 782 494 792 q 443 771 474 771 q 392 792 413 771 q 372 843 372 814 q 394 892 372 872 q 443 913 415 913 q 492 892 471 913 q 514 843 514 872 q 494 792 514 814 z "},"":{"ha":654,"x_min":60,"x_max":644,"o":"m 521 450 q 507 171 521 450 q 568 78 507 78 q 610 92 593 78 q 631 107 628 107 q 644 93 644 107 q 603 21 644 57 q 513 -15 563 -15 q 437 26 463 -15 q 411 126 411 67 q 411 139 411 132 l 407 139 q 322 26 382 71 q 197 -18 263 -18 q 97 9 131 -18 q 63 86 63 36 q 153 235 63 165 q 404 351 243 304 q 407 407 407 399 q 378 531 407 482 q 293 579 350 579 q 201 547 236 579 q 165 453 165 514 q 167 422 165 433 q 129 408 157 408 q 81 425 101 408 q 60 474 60 442 q 139 581 60 536 q 306 625 218 625 q 521 450 521 625 m 253 58 q 354 126 310 58 q 404 311 399 194 q 239 222 286 268 q 192 124 192 176 q 253 58 192 58 m 435 856 q 435 830 435 856 q 397 766 435 803 q 306 729 360 729 q 213 767 251 729 q 175 856 175 804 q 213 944 175 907 q 303 981 251 981 q 395 945 356 981 q 435 856 435 910 m 222 855 q 222 837 222 855 q 247 794 222 819 q 306 769 272 769 q 364 795 340 769 q 388 856 388 821 q 363 916 388 890 q 303 942 339 942 q 245 916 268 942 q 222 855 222 890 z "},"":{"ha":1021,"x_min":60,"x_max":968,"o":"m 753 100 q 844 111 806 100 q 900 136 883 122 l 932 161 q 953 172 946 172 q 968 156 968 172 q 914 61 968 125 q 835 6 888 29 q 717 -18 782 -18 q 541 44 617 -18 q 439 201 465 107 l 435 201 q 188 -18 365 -18 q 97 9 131 -18 q 63 86 63 36 q 153 235 63 165 q 404 351 243 304 q 407 407 407 399 q 378 531 407 482 q 293 579 350 579 q 201 547 236 579 q 165 453 165 514 q 167 422 165 433 q 129 408 157 408 q 81 425 101 408 q 60 474 60 442 q 139 581 60 536 q 306 625 218 625 q 507 514 475 625 l 511 514 q 619 594 557 565 q 744 624 682 624 q 897 559 835 624 q 958 389 958 494 q 949 358 958 367 q 904 347 939 349 q 735 343 869 344 q 503 336 600 342 q 580 159 503 218 q 753 100 657 100 m 840 432 q 801 514 840 479 q 701 549 763 549 q 581 503 639 549 q 507 379 522 458 q 653 392 543 383 q 801 406 763 401 q 840 432 840 411 m 253 58 q 354 126 310 58 q 404 311 399 194 q 239 222 286 268 q 192 124 192 176 q 253 58 192 58 z "},"":{"ha":635,"x_min":54,"x_max":597,"o":"m 419 625 q 528 599 485 625 q 571 533 571 572 q 518 471 571 493 q 349 557 428 557 q 221 498 271 557 q 171 325 171 439 q 238 147 171 211 q 393 82 304 82 q 553 126 486 82 q 581 142 576 142 q 597 125 597 142 q 567 76 597 108 q 476 13 536 43 q 350 -18 415 -18 q 321 -17 331 -18 l 303 -69 q 308 -69 306 -69 q 390 -90 353 -69 q 428 -152 428 -110 q 396 -217 428 -194 q 324 -239 364 -239 q 245 -219 285 -239 q 206 -170 206 -200 q 235 -140 206 -140 q 265 -160 257 -140 q 260 -178 260 -167 q 276 -199 260 -189 q 315 -208 293 -208 q 352 -195 336 -208 q 368 -158 368 -182 q 285 -99 368 -99 q 268 -99 279 -99 q 251 -100 257 -100 l 283 -12 q 115 85 176 7 q 54 261 54 164 q 165 519 54 413 q 419 625 275 625 z "},"":{"ha":647,"x_min":54,"x_max":594,"o":"m 164 979 q 178 1011 164 999 q 222 1024 192 1024 q 272 1003 251 1024 q 340 910 292 983 q 424 797 389 836 q 460 754 460 758 q 447 742 460 742 q 428 746 433 742 q 211 903 258 863 q 164 979 164 943 m 379 100 q 471 111 432 100 q 528 136 510 122 l 558 161 q 579 172 572 172 q 594 156 594 172 q 540 61 594 125 q 461 6 514 29 q 343 -18 408 -18 q 138 74 221 -18 q 54 285 54 165 q 153 529 54 435 q 371 624 251 624 q 523 559 461 624 q 585 389 585 494 q 575 358 585 367 q 531 347 565 349 q 361 343 496 344 q 129 336 226 342 q 206 159 129 218 q 379 100 283 100 m 467 432 q 428 514 467 479 q 327 549 389 549 q 207 503 265 549 q 133 379 149 458 q 279 392 169 383 q 428 406 389 401 q 467 432 467 411 z "},"":{"ha":647,"x_min":54,"x_max":594,"o":"m 251 742 q 233 754 233 742 q 263 790 233 758 q 342 883 293 822 q 411 971 390 944 q 511 1033 458 1033 q 546 1021 532 1033 q 560 989 560 1008 q 481 893 560 953 q 265 746 457 876 q 251 742 258 742 m 379 100 q 471 111 432 100 q 528 136 510 122 l 558 161 q 579 172 572 172 q 594 156 594 172 q 540 61 594 125 q 461 6 514 29 q 343 -18 408 -18 q 138 74 221 -18 q 54 285 54 165 q 153 529 54 435 q 371 624 251 624 q 523 559 461 624 q 585 389 585 494 q 575 358 585 367 q 531 347 565 349 q 361 343 496 344 q 129 336 226 342 q 206 159 129 218 q 379 100 283 100 m 467 432 q 428 514 467 479 q 327 549 389 549 q 207 503 265 549 q 133 379 149 458 q 279 392 169 383 q 428 406 389 401 q 467 432 467 411 z "},"":{"ha":647,"x_min":54,"x_max":594,"o":"m 210 736 q 185 725 197 725 q 168 736 172 725 l 326 940 q 363 960 342 960 q 403 940 383 960 l 556 736 q 536 726 549 726 q 513 736 524 726 l 364 861 l 210 736 m 379 100 q 471 111 432 100 q 528 136 510 122 l 558 161 q 579 172 572 172 q 594 156 594 172 q 540 61 594 125 q 461 6 514 29 q 343 -18 408 -18 q 138 74 221 -18 q 54 285 54 165 q 153 529 54 435 q 371 624 251 624 q 523 559 461 624 q 585 389 585 494 q 575 358 585 367 q 531 347 565 349 q 361 343 496 344 q 129 336 226 342 q 206 159 129 218 q 379 100 283 100 m 467 432 q 428 514 467 479 q 327 549 389 549 q 207 503 265 549 q 133 379 149 458 q 279 392 169 383 q 428 406 389 401 q 467 432 467 411 z "},"":{"ha":647,"x_min":54,"x_max":594,"o":"m 297 792 q 286 782 297 792 q 246 771 276 771 q 195 792 215 771 q 175 844 175 814 q 196 893 175 874 q 245 913 217 913 q 295 892 274 913 q 317 843 317 872 q 297 792 317 814 m 528 792 q 518 782 528 792 q 478 771 508 771 q 427 792 447 771 q 407 843 407 814 q 428 892 407 872 q 478 913 450 913 q 527 892 506 913 q 549 843 549 872 q 528 792 549 814 m 379 100 q 471 111 432 100 q 528 136 510 122 l 558 161 q 579 172 572 172 q 594 156 594 172 q 540 61 594 125 q 461 6 514 29 q 343 -18 408 -18 q 138 74 221 -18 q 54 285 54 165 q 153 529 54 435 q 371 624 251 624 q 523 559 461 624 q 585 389 585 494 q 575 358 585 367 q 531 347 565 349 q 361 343 496 344 q 129 336 226 342 q 206 159 129 218 q 379 100 283 100 m 467 432 q 428 514 467 479 q 327 549 389 549 q 207 503 265 549 q 133 379 149 458 q 279 392 169 383 q 428 406 389 401 q 467 432 467 411 z "},"":{"ha":414,"x_min":40,"x_max":374,"o":"m 214 1 l 53 -3 q 43 18 43 -3 q 50 39 43 39 l 131 39 q 147 63 147 39 l 147 389 q 108 524 147 524 l 81 524 q 69 544 69 524 q 78 565 69 565 q 217 639 142 565 q 250 664 243 664 q 271 647 271 664 q 268 573 271 636 q 265 413 265 510 l 265 164 q 294 42 265 42 l 363 42 q 374 21 374 42 q 365 0 374 0 l 214 1 m 40 979 q 54 1011 40 999 q 98 1024 68 1024 q 148 1003 128 1024 q 217 910 168 983 q 301 797 265 836 q 336 754 336 758 q 318 742 336 742 q 304 746 311 742 q 88 903 135 863 q 40 979 40 943 z "},"":{"ha":414,"x_min":43,"x_max":399,"o":"m 214 1 l 53 -3 q 43 18 43 -3 q 50 39 43 39 l 131 39 q 147 63 147 39 l 147 389 q 108 524 147 524 l 81 524 q 69 544 69 524 q 78 565 69 565 q 217 639 142 565 q 250 664 243 664 q 271 647 271 664 q 268 573 271 636 q 265 413 265 510 l 265 164 q 294 42 265 42 l 363 42 q 374 21 374 42 q 365 0 374 0 l 214 1 m 90 742 q 72 754 72 742 q 102 790 72 758 q 181 883 132 822 q 250 971 229 944 q 350 1033 297 1033 q 385 1021 371 1033 q 399 989 399 1008 q 319 893 399 953 q 104 746 296 876 q 90 742 97 742 z "},"":{"ha":414,"x_min":14,"x_max":401,"o":"m 214 1 l 53 -3 q 43 18 43 -3 q 50 39 43 39 l 131 39 q 147 63 147 39 l 147 389 q 108 524 147 524 l 81 524 q 69 544 69 524 q 78 565 69 565 q 217 639 142 565 q 250 664 243 664 q 271 647 271 664 q 268 573 271 636 q 265 413 265 510 l 265 164 q 294 42 265 42 l 363 42 q 374 21 374 42 q 365 0 374 0 l 214 1 m 56 736 q 31 725 43 725 q 14 736 18 725 l 172 940 q 208 960 188 960 q 249 940 229 960 l 401 736 q 382 726 394 726 q 358 736 369 726 l 210 861 l 56 736 z "},"":{"ha":414,"x_min":21,"x_max":394,"o":"m 214 1 l 53 -3 q 43 18 43 -3 q 50 39 43 39 l 131 39 q 147 63 147 39 l 147 389 q 108 524 147 524 l 81 524 q 69 544 69 524 q 78 565 69 565 q 217 639 142 565 q 250 664 243 664 q 271 647 271 664 q 268 573 271 636 q 265 413 265 510 l 265 164 q 294 42 265 42 l 363 42 q 374 21 374 42 q 365 0 374 0 l 214 1 m 142 792 q 132 782 142 792 q 92 771 122 771 q 41 792 61 771 q 21 844 21 814 q 42 893 21 874 q 91 913 63 913 q 141 892 119 913 q 163 843 163 872 q 142 792 163 814 m 374 792 q 364 782 374 792 q 324 771 354 771 q 273 792 293 771 q 253 843 253 814 q 274 892 253 872 q 324 913 296 913 q 373 892 351 913 q 394 843 394 872 q 374 792 394 814 z "},"":{"ha":778,"x_min":71,"x_max":683,"o":"m 683 371 q 586 83 683 186 q 354 -19 489 -19 q 145 74 219 -19 q 71 301 71 168 q 144 533 71 433 q 343 632 218 632 q 428 617 386 632 q 469 575 469 601 q 450 561 469 561 q 420 569 443 561 q 371 576 397 576 q 241 489 290 576 q 192 299 192 401 q 231 131 192 196 q 349 65 271 65 q 491 150 426 65 q 556 371 556 235 q 381 813 556 589 l 299 753 q 247 728 264 728 q 215 760 231 728 l 350 849 q 164 1018 267 942 q 169 1035 151 1028 q 186 1038 176 1038 q 281 998 215 1038 q 417 893 347 958 l 535 978 q 578 997 561 997 q 614 965 603 997 l 451 860 q 683 371 683 622 z "},"":{"ha":833,"x_min":47,"x_max":806,"o":"m 268 647 l 265 539 l 268 539 q 365 601 310 578 q 467 625 421 625 q 697 358 697 625 l 697 164 q 726 42 697 42 l 794 42 q 806 21 806 42 q 797 0 806 0 q 646 1 797 0 l 485 -3 q 475 18 475 -3 q 482 39 475 39 l 563 39 q 579 63 579 39 l 579 297 q 541 494 579 439 q 411 549 503 549 q 269 493 319 549 l 269 164 q 299 42 269 42 l 367 42 q 378 21 378 42 q 369 0 378 0 l 218 1 l 57 -3 q 47 18 47 -3 q 54 39 47 39 l 135 39 q 151 63 151 39 l 151 389 q 113 524 151 524 l 85 524 q 74 544 74 524 q 82 565 74 565 q 157 590 119 565 q 219 639 194 614 q 249 664 243 664 q 268 647 268 664 m 222 742 q 210 731 219 731 q 192 738 200 731 q 185 757 185 744 q 233 893 189 850 q 329 936 278 936 q 408 927 360 936 q 482 918 456 918 q 525 920 508 918 q 561 931 542 922 q 611 1015 600 950 q 625 1026 613 1026 q 647 1006 647 1026 q 603 864 647 908 q 503 819 558 819 q 427 828 475 819 q 340 838 379 838 q 267 819 300 838 q 222 742 233 800 z "},"":{"ha":763,"x_min":47,"x_max":715,"o":"m 47 308 q 47 375 47 308 q 149 533 47 442 q 381 625 250 625 q 614 531 513 625 q 715 302 715 438 q 617 74 715 167 q 382 -18 519 -18 q 146 78 244 -18 q 47 308 47 175 m 375 575 q 233 493 281 575 q 186 302 186 411 q 235 113 186 193 q 383 32 285 32 q 529 111 482 32 q 576 280 576 190 q 558 429 576 369 q 493 532 540 489 q 375 575 446 575 m 263 979 q 276 1011 263 999 q 320 1024 290 1024 q 370 1003 350 1024 q 439 910 390 983 q 523 797 488 836 q 558 754 558 758 q 540 742 558 742 q 526 746 533 742 q 310 903 357 863 q 263 979 263 943 z "},"":{"ha":763,"x_min":47,"x_max":715,"o":"m 47 308 q 47 375 47 308 q 149 533 47 442 q 381 625 250 625 q 614 531 513 625 q 715 302 715 438 q 617 74 715 167 q 382 -18 519 -18 q 146 78 244 -18 q 47 308 47 175 m 375 575 q 233 493 281 575 q 186 302 186 411 q 235 113 186 193 q 383 32 285 32 q 529 111 482 32 q 576 280 576 190 q 558 429 576 369 q 493 532 540 489 q 375 575 446 575 m 292 746 q 273 742 286 742 q 260 754 260 742 q 290 790 260 758 q 368 883 319 822 q 436 971 417 944 q 538 1033 485 1033 q 572 1021 558 1033 q 586 989 586 1008 q 507 893 586 953 q 292 746 483 876 z "},"":{"ha":763,"x_min":47,"x_max":715,"o":"m 47 308 q 47 375 47 308 q 149 533 47 442 q 381 625 250 625 q 614 531 513 625 q 715 302 715 438 q 617 74 715 167 q 382 -18 519 -18 q 146 78 244 -18 q 47 308 47 175 m 375 575 q 233 493 281 575 q 186 302 186 411 q 235 113 186 193 q 383 32 285 32 q 529 111 482 32 q 576 280 576 190 q 558 429 576 369 q 493 532 540 489 q 375 575 446 575 m 243 736 q 218 725 231 725 q 201 736 206 725 l 360 940 q 396 960 375 960 q 436 940 417 960 l 589 736 q 569 726 582 726 q 546 736 557 726 l 397 861 l 243 736 z "},"":{"ha":763,"x_min":47,"x_max":715,"o":"m 47 308 q 47 375 47 308 q 149 533 47 442 q 381 625 250 625 q 614 531 513 625 q 715 302 715 438 q 617 74 715 167 q 382 -18 519 -18 q 146 78 244 -18 q 47 308 47 175 m 375 575 q 233 493 281 575 q 186 302 186 411 q 235 113 186 193 q 383 32 285 32 q 529 111 482 32 q 576 280 576 190 q 558 429 576 369 q 493 532 540 489 q 375 575 446 575 m 186 742 q 174 731 183 731 q 156 738 164 731 q 149 757 149 744 q 197 893 153 850 q 293 936 242 936 q 372 927 324 936 q 446 918 419 918 q 489 920 472 918 q 525 931 506 922 q 575 1015 564 950 q 589 1026 576 1026 q 611 1006 611 1026 q 567 864 611 908 q 467 819 522 819 q 391 828 439 819 q 303 838 343 838 q 231 819 264 838 q 186 742 197 800 z "},"":{"ha":763,"x_min":47,"x_max":715,"o":"m 47 308 q 47 375 47 308 q 149 533 47 442 q 381 625 250 625 q 614 531 513 625 q 715 302 715 438 q 617 74 715 167 q 382 -18 519 -18 q 146 78 244 -18 q 47 308 47 175 m 375 575 q 233 493 281 575 q 186 302 186 411 q 235 113 186 193 q 383 32 285 32 q 529 111 482 32 q 576 280 576 190 q 558 429 576 369 q 493 532 540 489 q 375 575 446 575 m 316 792 q 306 782 316 792 q 265 771 296 771 q 215 792 235 771 q 194 844 194 814 q 215 893 194 874 q 265 913 236 913 q 315 892 293 913 q 336 843 336 872 q 316 792 336 814 m 548 792 q 538 782 548 792 q 497 771 528 771 q 447 792 467 771 q 426 843 426 814 q 448 892 426 872 q 497 913 469 913 q 547 892 525 913 q 568 843 568 872 q 548 792 568 814 z "},"":{"ha":722,"x_min":44,"x_max":685,"o":"m 413 581 q 403 570 413 581 q 363 560 393 560 q 312 581 332 560 q 292 633 292 603 q 313 682 292 663 q 362 701 333 701 q 412 681 390 701 q 433 632 433 661 q 413 581 433 603 m 413 26 q 403 15 413 26 q 363 4 393 4 q 312 26 332 4 q 292 77 292 47 q 313 126 292 107 q 362 146 333 146 q 412 126 390 146 q 433 76 433 106 q 413 26 433 47 m 683 332 q 683 322 683 328 l 96 322 q 60 338 72 322 q 46 368 47 353 l 44 383 l 618 390 q 683 332 683 390 z "},"":{"ha":763,"x_min":47,"x_max":715,"o":"m 381 625 q 514 596 447 625 l 576 713 q 606 740 592 740 q 651 717 628 740 l 569 565 q 676 452 636 519 q 715 306 715 385 q 617 74 715 167 q 381 -18 519 -18 q 267 1 322 -18 l 226 -75 q 191 -108 210 -108 q 149 -85 172 -108 l 210 28 q 91 147 135 72 q 47 311 47 222 q 149 533 47 442 q 381 625 250 625 m 375 575 q 233 493 281 575 q 186 291 186 411 q 246 97 186 171 l 483 540 q 375 575 438 575 m 388 32 q 529 111 482 32 q 576 302 576 190 q 529 489 576 414 l 296 54 q 388 32 336 32 z "},"":{"ha":785,"x_min":21,"x_max":768,"o":"m 128 606 l 244 610 q 258 599 258 610 q 254 575 258 592 q 247 461 247 550 l 247 310 q 281 113 247 168 q 408 58 315 58 q 486 81 450 58 q 543 143 522 104 l 543 443 q 514 565 543 565 l 446 565 q 435 587 435 567 q 443 607 435 607 l 542 606 l 658 610 q 672 599 672 610 q 668 575 672 592 q 661 461 661 550 l 661 203 q 681 92 661 108 q 710 83 692 83 l 757 88 q 768 67 768 88 q 760 46 768 47 q 606 -6 667 31 q 581 -18 586 -18 q 547 83 547 -18 l 544 83 q 451 8 507 33 q 346 -18 396 -18 q 129 249 129 -18 l 129 443 q 100 565 129 565 l 32 565 q 21 587 21 567 q 29 607 21 607 l 128 606 m 235 979 q 249 1011 235 999 q 292 1024 263 1024 q 342 1003 322 1024 q 411 910 363 983 q 495 797 460 836 q 531 754 531 758 q 513 742 531 742 q 499 746 506 742 q 282 903 329 863 q 235 979 235 943 z "},"":{"ha":785,"x_min":21,"x_max":768,"o":"m 128 606 l 244 610 q 258 599 258 610 q 254 575 258 592 q 247 461 247 550 l 247 310 q 281 113 247 168 q 408 58 315 58 q 486 81 450 58 q 543 143 522 104 l 543 443 q 514 565 543 565 l 446 565 q 435 587 435 567 q 443 607 435 607 l 542 606 l 658 610 q 672 599 672 610 q 668 575 672 592 q 661 461 661 550 l 661 203 q 681 92 661 108 q 710 83 692 83 l 757 88 q 768 67 768 88 q 760 46 768 47 q 606 -6 667 31 q 581 -18 586 -18 q 547 83 547 -18 l 544 83 q 451 8 507 33 q 346 -18 396 -18 q 129 249 129 -18 l 129 443 q 100 565 129 565 l 32 565 q 21 587 21 567 q 29 607 21 607 l 128 606 m 289 742 q 271 754 271 742 q 301 790 271 758 q 379 883 331 822 q 447 971 428 944 q 549 1033 496 1033 q 583 1021 569 1033 q 597 989 597 1008 q 518 893 597 953 q 303 746 494 876 q 289 742 296 742 z "},"":{"ha":785,"x_min":21,"x_max":768,"o":"m 128 606 l 244 610 q 258 599 258 610 q 254 575 258 592 q 247 461 247 550 l 247 310 q 281 113 247 168 q 408 58 315 58 q 486 81 450 58 q 543 143 522 104 l 543 443 q 514 565 543 565 l 446 565 q 435 587 435 567 q 443 607 435 607 l 542 606 l 658 610 q 672 599 672 610 q 668 575 672 592 q 661 461 661 550 l 661 203 q 681 92 661 108 q 710 83 692 83 l 757 88 q 768 67 768 88 q 760 46 768 47 q 606 -6 667 31 q 581 -18 586 -18 q 547 83 547 -18 l 544 83 q 451 8 507 33 q 346 -18 396 -18 q 129 249 129 -18 l 129 443 q 100 565 129 565 l 32 565 q 21 587 21 567 q 29 607 21 607 l 128 606 m 240 736 q 215 725 228 725 q 199 736 203 725 l 357 940 q 393 960 372 960 q 433 940 414 960 l 586 736 q 567 726 579 726 q 543 736 554 726 l 394 861 l 240 736 z "},"":{"ha":785,"x_min":21,"x_max":768,"o":"m 128 606 l 244 610 q 258 599 258 610 q 254 575 258 592 q 247 461 247 550 l 247 310 q 281 113 247 168 q 408 58 315 58 q 486 81 450 58 q 543 143 522 104 l 543 443 q 514 565 543 565 l 446 565 q 435 587 435 567 q 443 607 435 607 l 542 606 l 658 610 q 672 599 672 610 q 668 575 672 592 q 661 461 661 550 l 661 203 q 681 92 661 108 q 710 83 692 83 l 757 88 q 768 67 768 88 q 760 46 768 47 q 606 -6 667 31 q 581 -18 586 -18 q 547 83 547 -18 l 544 83 q 451 8 507 33 q 346 -18 396 -18 q 129 249 129 -18 l 129 443 q 100 565 129 565 l 32 565 q 21 587 21 567 q 29 607 21 607 l 128 606 m 327 792 q 317 782 327 792 q 276 771 307 771 q 226 792 246 771 q 206 844 206 814 q 226 893 206 874 q 276 913 247 913 q 326 892 304 913 q 347 843 347 872 q 327 792 347 814 m 559 792 q 549 782 559 792 q 508 771 539 771 q 458 792 478 771 q 438 843 438 814 q 459 892 438 872 q 508 913 481 913 q 558 892 536 913 q 579 843 579 872 q 559 792 579 814 z "},"":{"ha":653,"x_min":-68,"x_max":657,"o":"m 546 606 l 647 608 q 657 590 657 608 q 647 572 657 572 l 613 572 q 586 553 596 572 q 438 193 522 431 q 336 -87 353 -44 q 25 -432 203 -432 q -61 -397 -39 -432 q -67 -365 -67 -386 q -35 -307 -67 -344 q 56 -335 6 -335 q 165 -270 107 -335 q 256 -133 222 -206 q 289 -24 289 -60 q 275 63 289 13 q 233 182 261 114 q 185 298 206 250 q 127 424 164 346 q 78 527 90 501 q 53 562 67 553 q 7 571 39 571 q -1 590 -1 571 q 7 608 -1 608 l 139 606 l 289 608 q 297 590 297 608 q 289 572 297 572 l 226 572 q 208 562 208 572 q 230 495 208 551 q 292 332 251 439 q 365 131 333 225 q 424 310 389 211 q 478 465 460 410 q 496 546 496 521 q 478 571 496 571 l 413 571 q 406 590 406 571 q 413 608 406 608 l 546 606 m 222 742 q 204 754 204 742 q 234 790 204 758 q 313 883 264 822 q 381 971 361 944 q 482 1033 429 1033 q 517 1021 503 1033 q 531 989 531 1008 q 451 893 531 953 q 236 746 428 876 q 222 742 229 742 z "},"":{"ha":838,"x_min":56,"x_max":782,"o":"m 283 1021 l 279 521 l 282 521 q 503 625 368 625 q 710 542 638 625 q 782 322 782 460 q 687 83 782 183 q 460 -18 592 -18 q 373 -6 413 -18 q 319 15 333 6 q 281 43 304 25 q 282 -97 282 19 l 282 -211 q 311 -333 282 -333 l 379 -333 q 390 -354 390 -333 q 382 -375 390 -375 l 231 -374 l 69 -378 q 60 -357 60 -378 q 67 -336 60 -336 l 147 -336 q 164 -312 164 -336 l 164 811 q 129 946 164 946 l 67 946 q 56 967 56 946 q 64 988 56 988 q 156 998 121 988 q 204 1013 190 1008 q 238 1027 218 1018 q 263 1038 258 1036 q 283 1021 283 1038 m 456 32 q 597 113 550 32 q 643 297 643 194 q 586 470 643 400 q 432 540 529 540 q 325 511 365 540 q 294 487 304 496 q 282 476 285 478 l 282 228 q 456 32 299 32 z "},"":{"ha":653,"x_min":-68,"x_max":657,"o":"m 546 606 l 647 608 q 657 590 657 608 q 647 572 657 572 l 613 572 q 586 553 596 572 q 438 193 522 431 q 336 -87 353 -44 q 25 -432 203 -432 q -61 -397 -39 -432 q -67 -365 -67 -386 q -35 -307 -67 -344 q 56 -335 6 -335 q 165 -270 107 -335 q 256 -133 222 -206 q 289 -24 289 -60 q 275 63 289 13 q 233 182 261 114 q 185 298 206 250 q 127 424 164 346 q 78 527 90 501 q 53 562 67 553 q 7 571 39 571 q -1 590 -1 571 q 7 608 -1 608 l 139 606 l 289 608 q 297 590 297 608 q 289 572 297 572 l 226 572 q 208 562 208 572 q 230 495 208 551 q 292 332 251 439 q 365 131 333 225 q 424 310 389 211 q 478 465 460 410 q 496 546 496 521 q 478 571 496 571 l 413 571 q 406 590 406 571 q 413 608 406 608 l 546 606 m 288 792 q 278 782 288 792 q 238 771 268 771 q 187 792 207 771 q 167 844 167 814 q 188 893 167 874 q 237 913 208 913 q 287 892 265 913 q 308 843 308 872 q 288 792 308 814 m 520 792 q 510 782 520 792 q 469 771 500 771 q 419 792 439 771 q 399 843 399 814 q 420 892 399 872 q 469 913 442 913 q 519 892 497 913 q 540 843 540 872 q 520 792 540 814 z "},"":{"ha":414,"x_min":43,"x_max":374,"o":"m 214 1 l 53 -3 q 43 18 43 -3 q 50 39 43 39 l 131 39 q 147 63 147 39 l 147 389 q 108 524 147 524 l 81 524 q 69 544 69 524 q 78 565 69 565 q 217 639 142 565 q 250 664 243 664 q 271 647 271 664 q 268 573 271 636 q 265 413 265 510 l 265 164 q 294 42 265 42 l 363 42 q 374 21 374 42 q 365 0 374 0 l 214 1 z "},"":{"ha":858,"x_min":85,"x_max":842,"o":"m 321 933 l 515 938 q 526 914 526 938 q 515 890 526 890 l 456 890 q 410 877 421 890 q 399 826 399 864 l 399 514 l 560 631 q 572 623 568 636 q 575 597 575 610 q 561 574 575 583 l 399 463 l 399 56 l 479 56 q 785 114 700 56 l 794 190 q 819 201 797 201 q 840 193 840 201 l 828 -31 q 806 -40 828 -40 q 785 -31 785 -40 l 785 0 l 333 0 l 139 -3 q 128 21 128 -3 q 139 44 128 44 l 199 44 q 244 58 233 44 q 256 108 256 71 l 256 379 q 107 281 179 331 q 92 289 99 278 q 86 317 86 300 q 97 340 86 333 q 256 428 142 371 l 256 767 q 226 889 256 889 l 146 889 q 135 912 135 889 q 146 935 135 935 q 321 933 146 935 z "},"":{"ha":415,"x_min":42,"x_max":378,"o":"m 218 1 l 57 -3 q 47 18 47 -3 q 54 39 47 39 l 135 39 q 151 63 151 39 l 151 456 q 64 399 81 411 q 49 407 56 396 q 43 433 43 418 q 54 456 43 449 l 151 507 l 151 811 q 117 946 151 946 l 54 946 q 43 967 43 946 q 51 988 43 988 q 143 998 108 988 q 192 1013 178 1008 q 226 1027 206 1018 q 250 1038 246 1036 q 271 1021 271 1038 q 270 852 271 1015 q 269 576 269 689 l 346 633 q 361 621 356 640 q 363 603 363 614 q 269 524 363 583 l 269 164 q 299 42 269 42 l 367 42 q 378 21 378 42 q 369 0 378 0 l 218 1 z "},"":{"ha":1532,"x_min":67,"x_max":1472,"o":"m 572 950 q 704 936 646 950 q 783 908 763 922 l 804 896 l 1385 935 l 1388 983 q 1408 992 1388 992 q 1428 979 1428 992 q 1453 751 1433 881 q 1435 740 1456 740 q 1411 756 1415 740 q 1379 814 1401 783 q 1188 845 1321 833 q 990 857 1056 857 q 882 851 925 857 q 1019 688 965 788 q 1078 493 1074 589 q 1265 506 1201 496 q 1332 518 1328 515 l 1346 594 q 1363 604 1347 604 q 1389 592 1392 604 q 1381 463 1381 528 q 1388 344 1381 399 q 1367 333 1390 333 q 1344 342 1344 333 l 1332 406 q 1224 430 1314 417 q 1076 444 1133 443 q 1049 304 1074 368 q 1002 208 1025 240 q 940 135 979 176 q 1127 122 1075 122 q 1233 124 1179 122 q 1418 146 1310 124 l 1425 192 q 1444 203 1428 203 q 1471 194 1471 203 l 1447 -24 q 1426 -33 1447 -33 q 1404 -24 1404 -33 l 1407 15 q 1183 50 1318 36 q 957 67 1047 64 l 867 71 q 572 -18 733 -18 q 215 124 364 -18 q 67 466 67 265 q 215 808 67 667 q 572 950 364 950 m 810 765 q 764 826 810 765 q 572 886 718 886 q 334 765 426 886 q 242 466 242 644 q 334 167 242 288 q 572 46 426 46 q 810 167 718 46 q 903 466 903 288 q 810 765 903 644 z "},"":{"ha":1233,"x_min":47,"x_max":1181,"o":"m 381 625 q 560 572 476 625 q 676 443 643 519 l 681 443 q 797 576 719 528 q 961 624 875 624 q 1109 559 1047 624 q 1171 389 1171 494 q 1161 358 1171 367 q 1117 347 1151 349 q 947 343 1082 344 q 714 336 811 342 q 792 159 714 218 q 965 100 869 100 q 1057 111 1018 100 q 1114 136 1096 122 l 1144 161 q 1165 172 1158 172 q 1181 156 1181 172 q 1126 61 1181 125 q 1047 6 1100 29 q 919 -18 994 -18 q 774 29 844 -18 q 675 151 704 76 l 671 151 q 553 27 632 72 q 381 -18 474 -18 q 146 78 244 -18 q 47 308 47 175 q 149 533 47 442 q 381 625 250 625 m 375 575 q 233 493 281 575 q 186 302 186 411 q 235 113 186 193 q 383 32 285 32 q 529 111 482 32 q 576 280 576 190 q 558 429 576 369 q 493 532 540 489 q 375 575 446 575 m 1053 432 q 1014 514 1053 479 q 913 549 975 549 q 792 503 850 549 q 718 379 733 458 q 865 392 754 383 q 1014 406 975 401 q 1053 432 1053 411 z "},"":{"ha":747,"x_min":64,"x_max":681,"o":"m 681 241 q 681 183 681 241 q 582 53 681 125 q 364 -18 483 -18 q 153 24 244 -18 l 164 -4 q 158 -20 168 -12 q 135 -28 147 -28 q 118 -21 122 -28 q 64 240 74 92 q 86 254 64 254 q 110 244 108 254 q 233 75 140 139 q 366 35 290 35 q 488 78 442 35 q 535 184 535 122 q 503 295 535 246 q 424 375 471 344 q 321 440 376 406 q 218 505 265 474 q 139 589 171 536 q 107 708 107 642 q 198 880 107 810 q 426 950 289 950 q 543 933 489 950 l 560 929 q 553 960 554 951 q 559 972 553 968 q 578 975 565 975 q 596 964 592 975 q 633 743 628 851 q 610 735 629 735 q 588 739 592 735 q 544 833 572 796 q 483 883 517 869 q 406 897 450 897 q 283 853 319 897 q 246 758 246 810 q 270 669 246 706 q 333 605 294 632 q 417 552 371 578 q 509 497 463 526 q 594 433 556 468 q 681 241 681 357 m 546 1264 q 571 1275 558 1275 q 588 1264 583 1275 l 429 1060 q 393 1040 414 1040 q 353 1060 372 1040 l 200 1264 q 219 1274 207 1274 q 243 1264 232 1274 l 392 1139 l 546 1264 z "},"":{"ha":531,"x_min":64,"x_max":485,"o":"m 485 157 q 415 28 485 75 q 258 -18 346 -18 q 128 6 169 -18 q 125 -15 128 -11 q 108 -21 122 -21 q 93 -10 94 -21 q 77 94 89 24 q 65 174 65 165 q 73 188 65 183 q 90 191 81 192 q 101 183 100 190 q 268 26 149 26 q 347 52 314 26 q 379 122 379 78 q 350 198 379 165 q 279 253 321 231 q 196 299 238 275 q 125 360 154 322 q 96 450 96 399 q 156 578 96 532 q 308 625 217 625 q 399 611 357 625 q 396 638 393 633 q 410 643 399 643 q 425 640 421 643 q 433 622 429 638 q 442 581 438 606 q 454 520 446 557 q 465 474 463 483 q 461 462 467 465 q 444 458 456 458 q 428 469 432 458 q 296 581 386 581 q 225 555 251 581 q 199 490 199 529 q 228 421 199 450 q 299 371 257 392 q 384 326 342 350 q 456 258 426 301 q 485 157 485 215 m 432 940 q 457 951 444 951 q 474 940 469 951 l 315 736 q 279 717 300 717 q 239 736 258 717 l 86 940 q 106 950 93 950 q 129 940 118 950 l 278 815 l 432 940 z "},"":{"ha":842,"x_min":-94,"x_max":960,"o":"m 431 1 l 239 -3 q 228 21 228 -3 q 239 44 228 44 l 299 44 q 344 58 333 44 q 356 108 356 71 l 356 419 q 76 801 357 476 q 6 873 31 856 q -40 890 -19 890 l -85 890 q -94 913 -94 890 q -85 935 -94 935 l 88 932 l 283 935 q 296 912 296 935 q 283 889 296 889 l 186 889 q 236 824 186 883 q 450 526 397 635 l 454 526 q 578 695 483 576 q 685 838 674 814 q 697 874 697 861 q 682 890 697 890 l 628 890 q 615 913 615 890 q 628 935 615 935 l 792 932 l 946 935 q 960 912 960 935 q 946 889 960 889 l 911 889 q 851 867 876 889 q 622 638 750 782 q 493 446 493 493 l 493 146 q 522 46 493 46 l 603 46 q 614 23 614 46 q 603 0 614 0 l 431 1 m 355 1116 q 345 1105 355 1116 q 304 1094 335 1094 q 253 1116 274 1094 q 233 1167 233 1138 q 254 1217 233 1197 q 303 1236 275 1236 q 353 1216 332 1236 q 375 1167 375 1196 q 355 1116 375 1138 m 587 1116 q 577 1105 587 1116 q 536 1094 567 1094 q 485 1116 506 1094 q 465 1167 465 1138 q 487 1216 465 1196 q 536 1236 508 1236 q 585 1216 564 1236 q 607 1167 607 1196 q 587 1116 607 1138 z "},"":{"ha":901,"x_min":43,"x_max":838,"o":"m 54 0 q 43 17 43 0 q 58 43 43 33 q 476 676 88 61 l 606 881 l 257 881 q 206 858 233 881 q 129 710 154 814 q 111 697 128 697 q 81 710 78 697 q 111 947 94 832 q 144 968 114 968 q 174 949 174 968 q 176 935 174 938 q 188 932 179 932 l 793 932 q 807 917 807 932 q 794 899 807 907 q 644 682 779 893 q 381 264 508 471 l 253 56 l 640 56 q 790 271 729 56 q 810 286 794 286 q 836 274 836 286 l 804 0 q 798 -21 803 -15 q 774 -27 793 -26 q 754 -18 754 -28 q 658 -2 754 -4 q 54 0 561 0 m 618 1264 q 643 1275 631 1275 q 660 1264 656 1275 l 501 1060 q 465 1040 486 1040 q 425 1060 444 1040 l 272 1264 q 292 1274 279 1274 q 315 1264 304 1274 l 464 1139 l 618 1264 z "},"":{"ha":631,"x_min":49,"x_max":585,"o":"m 557 -18 q 538 -28 557 -28 q 519 -20 519 -28 q 510 -9 519 -12 q 450 -3 500 -6 q 57 0 367 0 q 49 13 49 0 q 57 32 49 25 q 159 172 72 39 q 325 436 246 306 l 404 565 l 207 565 q 111 457 149 565 q 90 450 108 450 q 71 457 71 450 q 113 624 79 524 q 135 633 115 633 q 156 621 156 633 q 161 607 156 608 l 556 607 q 565 592 565 607 q 556 574 565 578 q 471 451 547 571 q 311 199 394 332 q 208 43 228 67 l 446 43 q 525 94 501 43 q 543 165 536 122 q 565 175 544 175 q 585 165 585 175 q 566 76 575 139 q 557 -18 557 13 m 446 940 q 471 951 458 951 q 488 940 483 951 l 329 736 q 293 717 314 717 q 253 736 272 717 l 100 940 q 119 950 107 950 q 143 940 132 950 l 292 815 l 446 940 z "},"":{"ha":400,"x_min":-293,"x_max":776,"o":"m -187 -301 q -261 -277 -231 -301 q -293 -218 -292 -253 q -257 -164 -293 -183 q -217 -197 -231 -187 q -138 -228 -179 -228 q -60 -180 -97 -228 q 13 -37 -22 -132 q 78 156 49 58 q 151 397 108 254 q 231 640 194 540 l 118 640 q 108 654 108 640 q 126 686 108 686 q 258 719 244 686 q 424 1015 339 922 q 639 1107 508 1107 q 733 1089 689 1107 q 776 1026 776 1071 q 757 978 776 997 q 701 954 738 958 q 575 1033 636 1033 q 465 954 514 1033 q 354 694 417 875 l 504 694 q 515 678 513 694 q 493 640 515 640 l 336 640 q 281 476 317 589 q 214 270 244 363 q 137 66 183 178 q 45 -122 90 -46 q -61 -249 0 -197 q -187 -301 -122 -301 z "},"":{"ha":583,"x_min":92,"x_max":479,"o":"m 133 736 q 108 725 121 725 q 92 736 96 725 l 250 940 q 286 960 265 960 q 326 940 307 960 l 479 736 q 460 726 472 726 q 436 736 447 726 l 288 861 l 133 736 z "},"":{"ha":583,"x_min":92,"x_max":479,"o":"m 438 940 q 463 951 450 951 q 479 940 475 951 l 321 736 q 285 717 306 717 q 244 736 264 717 l 92 940 q 111 950 99 950 q 135 940 124 950 l 283 815 l 438 940 z "},"":{"ha":556,"x_min":92,"x_max":475,"o":"m 475 911 q 416 786 471 835 q 283 738 361 738 q 151 786 206 738 q 92 911 96 835 q 108 926 92 926 q 128 911 124 926 q 185 842 142 864 q 283 819 229 819 q 381 842 338 819 q 439 911 425 864 q 459 926 443 926 q 475 911 475 926 z "},"":{"ha":333,"x_min":92,"x_max":233,"o":"m 213 792 q 203 782 213 792 q 163 771 193 771 q 112 792 132 771 q 92 844 92 814 q 113 893 92 874 q 162 913 133 913 q 212 892 190 913 q 233 843 233 872 q 213 792 233 814 z "},"":{"ha":444,"x_min":92,"x_max":351,"o":"m 351 856 q 351 830 351 856 q 314 766 351 803 q 222 729 276 729 q 130 767 168 729 q 92 856 92 804 q 130 944 92 907 q 220 981 168 981 q 312 945 272 981 q 351 856 351 910 m 139 855 q 139 837 139 855 q 164 794 139 819 q 223 769 189 769 q 281 795 257 769 q 304 856 304 821 q 280 916 304 890 q 220 942 256 942 q 162 916 185 942 q 139 855 139 890 z "},"":{"ha":417,"x_min":99,"x_max":331,"o":"m 331 -126 q 288 -189 331 -158 q 199 -219 246 -219 q 126 -197 153 -219 q 99 -137 99 -175 q 271 0 99 -43 l 301 0 l 301 -3 q 172 -117 172 -64 q 215 -160 172 -160 q 263 -144 238 -160 q 303 -112 289 -128 l 317 -97 q 331 -126 331 -110 z "},"":{"ha":583,"x_min":51,"x_max":515,"o":"m 89 742 q 76 731 86 731 q 59 738 67 731 q 51 757 51 744 q 100 893 56 850 q 196 936 144 936 q 274 927 226 936 q 349 918 322 918 q 392 920 375 918 q 428 931 408 922 q 478 1015 467 950 q 492 1026 479 1026 q 514 1006 514 1026 q 469 864 514 908 q 369 819 425 819 q 294 828 342 819 q 206 838 246 838 q 133 819 167 838 q 89 742 100 800 z "},"":{"ha":750,"x_min":97,"x_max":656,"o":"m 115 719 q 97 732 97 719 q 103 742 97 739 q 215 834 161 781 q 301 913 268 888 q 363 939 333 939 q 406 926 392 939 q 419 889 419 914 q 391 845 419 864 q 277 792 363 826 q 157 738 192 757 q 115 719 122 719 m 351 719 q 333 732 333 719 q 339 742 333 739 q 451 834 397 781 q 537 913 504 888 q 599 939 569 939 q 642 926 628 939 q 656 889 656 914 q 627 845 656 864 q 513 792 599 826 q 393 738 428 757 q 351 719 358 719 z "},"":{"ha":694,"x_min":0,"x_max":694,"o":"m 693 289 q 693 279 693 285 l 51 279 q 15 294 28 279 q 1 325 3 310 l 0 340 l 628 347 q 693 289 693 347 z "},"":{"ha":1389,"x_min":0,"x_max":1388,"o":"m 1386 289 q 1386 279 1386 285 l 51 279 q 15 294 28 279 q 1 325 3 310 l 0 340 l 1321 347 q 1386 289 1386 347 z "},"":{"ha":417,"x_min":117,"x_max":315,"o":"m 178 806 q 244 756 178 756 q 263 757 253 756 q 299 699 299 739 q 276 635 299 658 q 213 613 254 613 q 144 649 172 613 q 117 732 117 685 q 165 878 117 822 q 300 982 213 933 l 315 956 q 217 883 257 926 q 178 806 178 840 z "},"":{"ha":417,"x_min":106,"x_max":304,"o":"m 243 754 q 176 804 243 804 q 158 803 168 804 q 122 861 122 821 q 144 924 122 901 q 208 947 167 947 q 276 911 249 947 q 304 828 304 875 q 256 682 304 738 q 121 578 208 626 l 106 604 q 203 676 164 633 q 243 754 243 719 z "},"":{"ha":417,"x_min":122,"x_max":296,"o":"m 136 -179 q 194 -126 176 -144 q 226 -75 213 -107 q 239 -22 239 -43 q 239 3 239 -1 q 190 -15 217 -15 q 142 7 163 -15 q 122 60 122 29 q 146 111 122 90 q 207 132 169 132 q 270 93 244 132 q 296 -4 296 54 q 260 -109 296 -62 q 154 -203 225 -156 l 136 -179 z "},"":{"ha":556,"x_min":67,"x_max":508,"o":"m 128 806 q 194 756 128 756 q 213 757 203 756 q 249 699 249 739 q 226 635 249 658 q 163 613 204 613 q 94 649 122 613 q 67 732 67 685 q 115 878 67 822 q 250 982 163 933 l 265 956 q 167 883 207 926 q 128 806 128 840 m 371 806 q 438 756 371 756 q 456 757 446 756 q 492 699 492 739 q 469 635 492 658 q 406 613 447 613 q 338 649 365 613 q 310 732 310 685 q 358 878 310 822 q 493 982 406 933 l 508 956 q 410 883 450 926 q 371 806 371 840 z "},"":{"ha":556,"x_min":56,"x_max":497,"o":"m 436 754 q 369 804 436 804 q 351 803 361 804 q 315 861 315 821 q 338 924 315 901 q 401 947 360 947 q 469 911 442 947 q 497 828 497 875 q 449 682 497 738 q 314 578 401 626 l 299 604 q 397 676 357 633 q 436 754 436 719 m 193 754 q 126 804 193 804 q 108 803 118 804 q 72 861 72 821 q 94 924 72 901 q 158 947 117 947 q 226 911 199 947 q 254 828 254 875 q 206 682 254 738 q 71 578 158 626 l 56 604 q 153 676 114 633 q 193 754 193 719 z "},"":{"ha":556,"x_min":49,"x_max":483,"o":"m 186 -51 q 119 -1 186 -1 q 101 -3 111 -1 q 65 56 65 15 q 88 119 65 96 q 151 142 110 142 q 219 106 192 142 q 247 22 247 69 q 199 -124 247 -68 q 64 -228 151 -179 l 49 -201 q 147 -129 107 -172 q 186 -51 186 -86 m 422 -51 q 356 -1 422 -1 q 338 -3 347 -1 q 301 56 301 15 q 324 119 301 96 q 387 142 346 142 q 456 106 428 142 q 483 22 483 69 q 435 -124 483 -68 q 300 -228 388 -179 l 285 -201 q 383 -129 343 -172 q 422 -51 422 -86 z "},"":{"ha":694,"x_min":74,"x_max":621,"o":"m 619 501 q 619 492 619 497 l 386 492 q 382 261 382 382 q 414 -206 382 -42 q 350 -218 386 -218 q 283 26 283 -218 q 290 264 283 97 q 299 492 297 431 l 125 492 q 89 507 101 492 q 75 538 76 522 l 74 553 q 300 554 213 553 q 301 642 301 588 q 299 733 301 697 q 294 785 297 768 q 290 814 292 801 q 299 836 288 833 q 422 868 411 868 q 435 864 433 868 q 433 849 436 860 q 428 826 431 839 q 390 556 399 725 l 554 560 q 619 501 619 560 z "},"":{"ha":694,"x_min":74,"x_max":621,"o":"m 619 139 q 619 129 619 135 l 383 129 q 414 -206 390 -83 q 350 -218 386 -218 q 283 26 283 -218 q 285 129 283 93 l 125 129 q 89 144 101 129 q 75 175 76 160 l 74 190 q 286 192 204 190 q 299 492 297 442 l 125 492 q 89 507 101 492 q 75 538 76 522 l 74 553 q 300 554 213 553 q 301 642 301 588 q 299 733 301 697 q 294 785 297 768 q 290 814 292 801 q 299 836 288 833 q 422 868 411 868 q 435 864 433 868 q 433 849 436 860 q 428 826 431 839 q 390 556 399 725 l 554 560 q 619 501 619 560 q 619 492 619 497 l 386 492 q 382 261 382 382 l 382 193 l 554 197 q 619 139 619 197 z "},"":{"ha":565,"x_min":111,"x_max":453,"o":"m 453 481 q 453 446 453 481 q 402 362 453 411 q 281 313 351 313 q 161 363 211 313 q 111 482 111 413 q 163 601 111 551 q 283 650 214 650 q 403 601 353 650 q 453 481 453 551 z "},"":{"ha":1389,"x_min":153,"x_max":1236,"o":"m 774 64 q 774 47 774 64 q 751 6 774 31 q 695 -18 728 -18 q 639 5 663 -18 q 615 60 615 28 q 637 116 615 92 q 691 140 658 140 q 749 119 724 140 q 774 64 774 97 m 1236 64 q 1236 47 1236 64 q 1213 6 1236 31 q 1158 -18 1190 -18 q 1101 5 1125 -18 q 1078 60 1078 28 q 1099 116 1078 92 q 1153 140 1121 140 q 1211 119 1186 140 q 1236 64 1236 97 m 311 64 q 311 47 311 64 q 288 6 311 31 q 233 -18 265 -18 q 176 5 200 -18 q 153 60 153 28 q 174 116 153 92 q 228 140 196 140 q 286 119 261 140 q 311 64 311 97 z "},"":{"ha":1649,"x_min":99,"x_max":1542,"o":"m 269 -12 q 231 -46 247 -46 q 192 -22 215 -46 l 868 947 q 900 974 886 974 q 944 950 921 974 l 269 -12 m 821 447 q 867 447 821 447 q 972 381 914 447 q 1031 222 1031 314 q 971 61 1031 129 q 817 -7 911 -7 q 663 58 722 -7 q 604 220 604 124 q 666 382 604 317 q 821 447 728 447 m 816 85 q 851 85 816 85 q 934 121 886 85 q 982 222 982 157 q 934 322 982 288 q 817 356 886 356 q 700 320 747 356 q 653 219 653 285 q 699 119 653 154 q 816 85 746 85 m 315 933 q 362 933 315 933 q 467 867 408 933 q 525 708 525 800 q 465 547 525 615 q 311 479 406 479 q 158 544 217 479 q 99 706 99 610 q 160 868 99 803 q 315 933 222 933 m 310 571 q 345 571 310 571 q 428 607 381 571 q 476 708 476 643 q 428 808 476 774 q 311 842 381 842 q 194 806 242 842 q 147 706 147 771 q 194 606 147 640 q 310 571 240 571 m 1332 447 q 1378 447 1332 447 q 1483 381 1425 447 q 1542 222 1542 314 q 1482 61 1542 129 q 1328 -7 1422 -7 q 1174 58 1233 -7 q 1115 220 1115 124 q 1177 382 1115 317 q 1332 447 1239 447 m 1327 85 q 1362 85 1327 85 q 1445 121 1397 85 q 1493 222 1493 157 q 1445 322 1493 288 q 1328 356 1397 356 q 1211 320 1258 356 q 1164 219 1164 285 q 1210 119 1164 154 q 1327 85 1257 85 z "},"":{"ha":414,"x_min":65,"x_max":326,"o":"m 308 532 q 326 494 326 514 q 305 450 326 475 q 241 383 283 425 q 171 307 199 342 q 241 231 199 272 q 305 164 283 189 q 326 119 326 139 q 308 82 326 100 q 199 194 260 138 q 101 278 138 250 l 65 307 q 308 532 199 407 z "},"":{"ha":414,"x_min":88,"x_max":349,"o":"m 106 82 q 88 119 88 100 q 109 164 88 139 q 173 231 131 189 q 243 307 215 272 q 173 383 215 342 q 109 450 131 425 q 88 494 88 475 q 106 532 88 514 q 215 420 154 476 q 313 336 276 364 l 349 307 q 106 82 215 207 z "},"":{"ha":564,"x_min":65,"x_max":483,"o":"m 143 8 q 108 -25 126 -25 q 65 -1 89 -25 l 408 639 q 438 667 424 667 q 483 643 463 667 l 143 8 z "},"":{"ha":722,"x_min":-8,"x_max":665,"o":"m 433 399 q 485 385 471 399 q 499 356 499 372 q 499 335 499 340 l 229 335 q 317 138 251 211 q 488 64 382 64 q 654 153 594 64 q 664 122 664 139 q 660 92 664 106 q 585 17 649 53 q 438 -18 522 -18 q 199 79 289 -18 q 90 335 110 176 l 43 335 q 7 349 19 335 q -7 378 -6 364 l -8 392 l 85 392 l 85 422 q 92 521 85 468 l 43 521 q 7 535 19 521 q -7 564 -6 550 l -8 578 l 104 578 q 251 845 144 740 q 469 950 358 950 q 546 942 514 950 q 588 925 578 933 l 597 917 l 597 939 q 617 951 597 951 q 638 939 638 951 q 646 740 638 796 q 625 726 649 726 q 600 740 601 726 l 592 803 q 588 812 590 806 q 574 833 585 818 q 550 858 563 847 q 474 888 517 888 q 306 810 371 888 q 224 581 242 732 l 433 585 q 485 572 471 585 q 499 542 499 558 q 499 521 499 526 l 219 521 q 218 472 218 503 q 221 394 218 442 l 433 399 z "},"":{"ha":1244,"x_min":42,"x_max":1176,"o":"m 210 467 l 183 465 q 175 478 175 465 q 183 490 175 490 l 215 490 q 233 497 229 490 q 238 524 238 504 l 238 858 q 229 922 238 922 l 215 922 q 100 911 149 922 q 74 858 81 903 q 57 851 72 851 q 42 857 42 851 q 46 967 46 886 q 60 974 46 974 q 75 967 75 974 l 75 954 q 164 951 125 951 l 381 951 q 488 954 438 951 l 488 967 q 501 974 488 974 q 515 967 515 974 q 521 858 515 897 q 504 851 521 851 q 486 858 488 851 q 463 911 479 904 q 343 922 428 919 q 325 889 325 921 l 325 554 q 333 490 325 490 l 375 490 q 385 478 385 490 q 375 467 385 467 l 329 468 l 285 468 q 210 467 225 468 m 1014 467 l 979 465 q 971 478 971 465 q 979 490 971 490 l 1006 490 q 1024 513 1025 490 l 999 825 l 936 682 q 844 476 864 515 q 826 471 840 471 q 808 478 813 471 q 658 829 774 535 q 643 552 643 614 q 654 490 643 490 l 688 490 q 697 478 697 490 q 688 467 697 467 l 639 468 l 610 468 q 546 467 564 468 l 519 465 q 510 478 510 465 q 519 490 510 490 l 543 490 q 574 510 568 490 q 597 703 582 567 q 611 885 611 839 q 599 931 611 931 l 564 931 q 554 942 554 931 q 564 954 554 954 l 618 953 q 707 951 644 951 q 843 574 746 831 l 907 733 q 992 951 974 897 q 1074 953 1050 951 l 1119 954 q 1128 942 1128 954 q 1119 931 1128 931 l 1092 931 q 1076 882 1075 931 q 1113 532 1076 833 q 1125 490 1119 490 l 1167 490 q 1176 478 1176 490 q 1167 467 1176 467 l 1115 468 l 1074 468 q 1014 467 1035 468 z "},"":{"ha":351,"x_min":0,"x_max":351,"o":"m 351 278 l 51 278 q 15 295 28 278 q 1 331 3 313 l 0 347 l 286 354 q 351 278 351 354 z "},"":{"ha":893,"x_min":38,"x_max":853,"o":"m 365 0 l 217 1 l 65 -3 q 50 18 50 -3 q 58 39 50 39 l 93 39 q 139 52 128 39 q 150 103 150 65 l 150 554 l 53 554 q 38 577 38 554 q 50 600 38 600 q 147 629 138 600 q 163 691 153 647 q 183 764 174 735 q 210 835 193 793 q 253 906 228 878 q 315 961 279 935 q 529 1017 389 1017 q 681 978 617 1017 q 744 883 744 940 q 722 832 744 851 q 674 813 700 813 q 629 817 647 813 q 569 924 604 888 q 474 961 533 961 q 268 647 268 961 l 268 607 l 425 607 q 440 581 440 607 q 428 554 440 554 l 268 554 l 268 42 l 364 42 q 374 17 374 35 q 365 0 374 0 m 693 1 l 532 -3 q 522 18 522 -3 q 529 39 522 39 l 569 39 q 615 52 604 39 q 626 103 626 65 l 626 390 q 608 505 626 486 q 560 524 589 524 q 550 540 550 524 q 557 558 550 557 q 619 581 585 561 q 672 615 653 600 q 729 664 690 631 q 750 647 750 664 l 744 493 l 744 42 l 842 42 q 853 21 853 42 q 844 0 853 0 l 693 1 z "},"":{"ha":894,"x_min":38,"x_max":857,"o":"m 750 1007 l 749 490 l 749 42 l 846 42 q 857 21 857 42 q 849 0 857 0 q 697 1 849 0 l 536 -3 q 526 18 526 -3 q 533 39 526 39 l 574 39 q 619 52 608 39 q 631 103 631 65 l 631 800 q 585 911 631 861 q 453 961 540 961 q 268 647 268 961 l 268 607 l 425 607 q 440 581 440 607 q 428 554 440 554 l 268 554 l 268 42 l 364 42 q 374 17 374 35 q 365 0 374 0 l 217 1 l 65 -3 q 50 18 50 -3 q 58 39 50 39 l 93 39 q 139 52 128 39 q 150 103 150 65 l 150 554 l 53 554 q 38 577 38 554 q 50 600 38 600 q 147 629 138 600 q 166 702 153 649 q 189 789 179 756 q 224 870 199 822 q 280 947 249 918 q 366 996 311 975 q 481 1017 421 1017 q 583 1003 540 1017 q 636 990 625 990 q 729 1024 647 990 q 750 1007 750 1024 z "}}}
